<svg xmlns="http://www.w3.org/2000/svg" xmlns:xlink="http://www.w3.org/1999/xlink" width="678" height="440" viewBox="0 0 678 440">
    <defs>
        <rect id="a" width="786" height="644" x="74" y="96" rx="18"/>
        <filter id="b" width="106.6%" height="108.1%" x="-3.3%" y="-3.4%" filterUnits="objectBoundingBox">
            <feOffset dy="4" in="SourceAlpha" result="shadowOffsetOuter1"/>
            <feGaussianBlur in="shadowOffsetOuter1" result="shadowBlurOuter1" stdDeviation="8"/>
            <feColorMatrix in="shadowBlurOuter1" values="0 0 0 0 0 0 0 0 0 0 0 0 0 0 0 0 0 0 0.02 0"/>
        </filter>
        <path id="e" d="M203.052.309c.356-.411.931-.411 1.287 0 .356.412.356 1.08 0 1.493-.356.411-.931.411-1.287 0a1.177 1.177 0 0 1 0-1.493zm9.656 11.189c.356-.413.931-.413 1.287 0 .356.411.356 1.079 0 1.491-.356.413-.93.413-1.287 0a1.175 1.175 0 0 1 0-1.491zm-19.312 0c.355-.413.93-.413 1.287 0 .356.411.356 1.079 0 1.491-.356.413-.932.413-1.287 0a1.175 1.175 0 0 1 0-1.491zm-9.657 11.188c.355-.412.932-.412 1.288 0 .356.413.356 1.08 0 1.492-.356.412-.933.412-1.288 0a1.175 1.175 0 0 1 0-1.492zm-9.657 11.189c.356-.413.931-.413 1.287 0 .356.412.356 1.08 0 1.491-.356.413-.93.413-1.287 0a1.175 1.175 0 0 1 0-1.491zm-9.656 11.188c.356-.411.931-.411 1.287 0 .356.413.356 1.08 0 1.493-.356.411-.931.411-1.287 0a1.177 1.177 0 0 1 0-1.493zm-9.656 11.189c.356-.412.93-.412 1.287 0 .356.412.356 1.08 0 1.492-.356.412-.931.412-1.287 0a1.175 1.175 0 0 1 0-1.492zm-9.657 11.188c.356-.412.932-.412 1.288 0 .356.413.356 1.08 0 1.493-.356.411-.932.411-1.288 0a1.177 1.177 0 0 1 0-1.493zm-9.656 11.19c.356-.413.931-.413 1.287 0 .356.41.356 1.078 0 1.49-.356.413-.931.413-1.287 0a1.175 1.175 0 0 1 0-1.49zM125.8 89.817c.356-.413.932-.413 1.288 0 .355.412.355 1.079 0 1.491-.356.413-.932.413-1.288 0a1.175 1.175 0 0 1 0-1.491zm-9.657 11.188c.356-.412.933-.412 1.289 0 .355.413.355 1.08 0 1.492-.356.412-.933.412-1.289 0a1.177 1.177 0 0 1 0-1.492zm-9.656 11.188c.356-.411.932-.411 1.288 0 .356.413.356 1.08 0 1.493-.356.411-.932.411-1.288 0a1.177 1.177 0 0 1 0-1.493zm-9.656 11.19c.356-.413.931-.413 1.287 0 .356.41.356 1.078 0 1.49-.356.413-.931.413-1.287 0a1.175 1.175 0 0 1 0-1.49zm-9.656 11.188c.356-.413.931-.413 1.287 0 .356.412.356 1.08 0 1.491-.356.413-.931.413-1.287 0a1.175 1.175 0 0 1 0-1.491zm-9.657 11.188c.355-.411.932-.411 1.288 0 .356.413.356 1.08 0 1.493-.356.411-.933.411-1.288 0a1.177 1.177 0 0 1 0-1.493zm-9.656 11.19c.356-.413.931-.413 1.287 0 .356.412.356 1.078 0 1.49-.356.413-.93.413-1.287 0a1.175 1.175 0 0 1 0-1.49zm-9.657 11.187c.356-.412.932-.412 1.287 0 .356.413.356 1.08 0 1.492-.355.412-.931.412-1.287 0a1.175 1.175 0 0 1 0-1.492zm-9.656 11.189c.356-.412.932-.412 1.287 0 .356.412.356 1.08 0 1.492-.355.412-.931.412-1.287 0a1.177 1.177 0 0 1 0-1.492zm-9.657 11.189c.356-.413.932-.413 1.288 0 .356.411.356 1.079 0 1.491-.356.413-.932.413-1.288 0a1.175 1.175 0 0 1 0-1.491zm-9.656 11.188c.356-.412.931-.412 1.287 0 .356.413.356 1.08 0 1.492-.356.412-.931.412-1.287 0a1.175 1.175 0 0 1 0-1.492zm-9.656 11.189c.356-.412.931-.412 1.287 0 .356.412.356 1.08 0 1.492-.356.412-.931.412-1.287 0a1.177 1.177 0 0 1 0-1.492zM9.923 224.08c.356-.412.932-.412 1.288 0s.356 1.08 0 1.492c-.356.412-.932.412-1.288 0a1.177 1.177 0 0 1 0-1.492zM.266 235.27c.356-.413.933-.413 1.289 0 .356.412.356 1.079 0 1.491-.356.413-.933.413-1.289 0a1.177 1.177 0 0 1 0-1.491zM203.052 22.686c.356-.412.931-.412 1.287 0 .356.413.356 1.08 0 1.492-.356.412-.931.412-1.287 0a1.175 1.175 0 0 1 0-1.492zm-9.656 11.189c.355-.413.93-.413 1.287 0 .356.412.356 1.08 0 1.491-.356.413-.932.413-1.287 0a1.175 1.175 0 0 1 0-1.491zm-9.657 11.188c.355-.411.932-.411 1.288 0 .356.413.356 1.08 0 1.493-.356.411-.933.411-1.288 0a1.177 1.177 0 0 1 0-1.493zm-9.657 11.189c.356-.412.931-.412 1.287 0 .356.412.356 1.08 0 1.492-.356.412-.93.412-1.287 0a1.175 1.175 0 0 1 0-1.492zm-9.656 11.188c.356-.412.931-.412 1.287 0 .356.413.356 1.08 0 1.493-.356.411-.931.411-1.287 0a1.177 1.177 0 0 1 0-1.493zm-9.656 11.19c.356-.413.93-.413 1.287 0 .356.41.356 1.078 0 1.49-.356.413-.931.413-1.287 0a1.175 1.175 0 0 1 0-1.49zm-9.657 11.188c.356-.413.932-.413 1.288 0 .356.412.356 1.079 0 1.491-.356.413-.932.413-1.288 0a1.175 1.175 0 0 1 0-1.491zm-9.656 11.188c.356-.412.931-.412 1.287 0 .356.413.356 1.08 0 1.492-.356.412-.931.412-1.287 0a1.175 1.175 0 0 1 0-1.492zm-9.657 11.188a.827.827 0 0 1 1.288 0c.355.413.355 1.08 0 1.493a.827.827 0 0 1-1.288 0 1.177 1.177 0 0 1 0-1.493zm-9.657 11.19c.356-.413.933-.413 1.289 0 .355.41.355 1.078 0 1.49-.356.413-.933.413-1.289 0a1.177 1.177 0 0 1 0-1.49zm-9.656 11.188c.356-.413.932-.413 1.288 0 .356.412.356 1.08 0 1.491-.356.413-.932.413-1.288 0a1.175 1.175 0 0 1 0-1.491zm-9.656 11.188c.356-.411.931-.411 1.287 0 .356.413.356 1.08 0 1.493-.356.411-.931.411-1.287 0a1.177 1.177 0 0 1 0-1.493zm-9.656 11.19c.356-.413.931-.413 1.287 0 .356.412.356 1.078 0 1.49-.356.413-.931.413-1.287 0a1.175 1.175 0 0 1 0-1.49zm-9.657 11.187c.355-.412.932-.412 1.288 0 .356.413.356 1.08 0 1.492-.356.412-.933.412-1.288 0a1.175 1.175 0 0 1 0-1.492zm-9.656 11.189c.356-.412.931-.412 1.287 0 .356.412.356 1.08 0 1.492-.356.412-.93.412-1.287 0a1.177 1.177 0 0 1 0-1.492zm-9.657 11.189c.356-.413.932-.413 1.287 0 .356.411.356 1.079 0 1.491-.355.413-.931.413-1.287 0a1.175 1.175 0 0 1 0-1.491zm-9.656 11.188c.356-.412.932-.412 1.287 0 .356.413.356 1.08 0 1.492-.355.412-.931.412-1.287 0a1.175 1.175 0 0 1 0-1.492zm-9.657 11.189c.356-.412.932-.412 1.288 0s.356 1.08 0 1.492c-.356.412-.932.412-1.288 0a1.177 1.177 0 0 1 0-1.492zm-9.656 11.188c.356-.412.931-.412 1.287 0 .356.412.356 1.08 0 1.492-.356.412-.931.412-1.287 0a1.175 1.175 0 0 1 0-1.492zM19.58 235.27c.356-.413.931-.413 1.287 0 .356.412.356 1.079 0 1.491-.356.413-.931.413-1.287 0a1.175 1.175 0 0 1 0-1.491zm-9.657 11.188c.356-.412.932-.412 1.288 0 .356.413.356 1.08 0 1.493a.827.827 0 0 1-1.288 0 1.179 1.179 0 0 1 0-1.493zm-9.657 11.19c.356-.413.933-.413 1.289 0 .356.41.356 1.078 0 1.49-.356.413-.933.413-1.289 0a1.177 1.177 0 0 1 0-1.49zm222.098-234.96c.356-.413.932-.413 1.288 0 .356.412.356 1.078 0 1.49-.356.413-.932.413-1.288 0a1.175 1.175 0 0 1 0-1.49zm9.657 11.188c.356-.413.932-.413 1.287 0 .356.412.356 1.08 0 1.491-.355.413-.931.413-1.287 0a1.175 1.175 0 0 1 0-1.491zm-19.313 0c.356-.413.931-.413 1.287 0 .356.412.356 1.08 0 1.491-.356.413-.93.413-1.287 0a1.175 1.175 0 0 1 0-1.491zm-9.656 11.188c.356-.411.931-.411 1.287 0 .356.413.356 1.08 0 1.493-.356.411-.931.411-1.287 0a1.177 1.177 0 0 1 0-1.493zm-9.656 11.189c.355-.412.93-.412 1.287 0 .356.412.356 1.08 0 1.492-.356.412-.932.412-1.287 0a1.175 1.175 0 0 1 0-1.492zm-9.657 11.188c.355-.412.932-.412 1.288 0 .356.413.356 1.08 0 1.493-.356.411-.933.411-1.288 0a1.177 1.177 0 0 1 0-1.493zm-9.657 11.19c.356-.413.931-.413 1.287 0 .356.41.356 1.078 0 1.49-.356.413-.93.413-1.287 0a1.175 1.175 0 0 1 0-1.49zm-9.656 11.188c.356-.413.931-.413 1.287 0 .356.412.356 1.079 0 1.491-.356.413-.931.413-1.287 0a1.175 1.175 0 0 1 0-1.491zm-9.656 11.188c.356-.412.93-.412 1.287 0 .356.413.356 1.08 0 1.492-.356.412-.931.412-1.287 0a1.175 1.175 0 0 1 0-1.492zm-9.657 11.188c.356-.411.932-.411 1.288 0 .356.413.356 1.08 0 1.493-.356.411-.932.411-1.288 0a1.177 1.177 0 0 1 0-1.493zm-9.656 11.19c.356-.413.931-.413 1.287 0 .356.41.356 1.078 0 1.49-.356.413-.931.413-1.287 0a1.175 1.175 0 0 1 0-1.49zm-9.657 11.188c.356-.413.932-.413 1.288 0 .355.412.355 1.08 0 1.491-.356.413-.932.413-1.288 0a1.175 1.175 0 0 1 0-1.491zm-9.657 11.188a.827.827 0 0 1 1.289 0c.355.413.355 1.08 0 1.493a.827.827 0 0 1-1.289 0 1.179 1.179 0 0 1 0-1.493zm-9.656 11.19c.356-.413.932-.413 1.288 0 .356.412.356 1.078 0 1.49-.356.413-.932.413-1.288 0a1.175 1.175 0 0 1 0-1.49zm-9.656 11.187c.356-.412.931-.412 1.287 0 .356.413.356 1.08 0 1.492-.356.412-.931.412-1.287 0a1.175 1.175 0 0 1 0-1.492zm-9.656 11.189c.356-.412.931-.412 1.287 0 .356.412.356 1.08 0 1.492-.356.412-.931.412-1.287 0a1.177 1.177 0 0 1 0-1.492zm-9.657 11.189c.355-.413.932-.413 1.288 0 .356.411.356 1.079 0 1.491-.356.413-.933.413-1.288 0a1.175 1.175 0 0 1 0-1.491zm-9.656 11.188c.356-.412.931-.412 1.287 0 .356.413.356 1.08 0 1.492-.356.412-.93.412-1.287 0a1.175 1.175 0 0 1 0-1.492zm-9.657 11.189c.356-.412.932-.412 1.287 0 .356.412.356 1.08 0 1.492-.355.412-.931.412-1.287 0a1.177 1.177 0 0 1 0-1.492zm-9.656 11.188c.356-.412.932-.412 1.287 0 .356.412.356 1.08 0 1.492-.355.412-.931.412-1.287 0a1.175 1.175 0 0 1 0-1.492zm-9.657 11.189c.356-.413.932-.413 1.288 0 .356.412.356 1.079 0 1.491-.356.413-.932.413-1.288 0a1.175 1.175 0 0 1 0-1.491zm-9.656 11.188c.356-.412.931-.412 1.287 0 .356.413.356 1.08 0 1.493-.356.411-.931.411-1.287 0a1.177 1.177 0 0 1 0-1.493zm-9.656 11.19c.356-.413.931-.413 1.287 0 .356.41.356 1.078 0 1.49-.356.413-.931.413-1.287 0a1.175 1.175 0 0 1 0-1.49zm-9.657 11.188c.356-.413.932-.413 1.288 0 .356.412.356 1.08 0 1.491-.356.413-.932.413-1.288 0a1.177 1.177 0 0 1 0-1.491zM222.364 45.063c.356-.411.932-.411 1.288 0 .356.413.356 1.08 0 1.493-.356.411-.932.411-1.288 0a1.177 1.177 0 0 1 0-1.493zm-9.656 11.189c.356-.412.931-.412 1.287 0 .356.412.356 1.08 0 1.492-.356.412-.93.412-1.287 0a1.175 1.175 0 0 1 0-1.492zm-9.656 11.188c.356-.412.931-.412 1.287 0 .356.413.356 1.08 0 1.493-.356.411-.931.411-1.287 0a1.177 1.177 0 0 1 0-1.493zm-9.656 11.19c.355-.413.93-.413 1.287 0 .356.41.356 1.078 0 1.49-.356.413-.932.413-1.287 0a1.175 1.175 0 0 1 0-1.49zm-9.657 11.188c.355-.413.932-.413 1.288 0 .356.412.356 1.079 0 1.491-.356.413-.933.413-1.288 0a1.175 1.175 0 0 1 0-1.491zm-9.657 11.188c.356-.412.931-.412 1.287 0 .356.413.356 1.08 0 1.492-.356.412-.93.412-1.287 0a1.175 1.175 0 0 1 0-1.492zm-9.656 11.188c.356-.411.931-.411 1.287 0 .356.413.356 1.08 0 1.493-.356.411-.931.411-1.287 0a1.177 1.177 0 0 1 0-1.493zm-9.656 11.19c.356-.413.93-.413 1.287 0 .356.41.356 1.078 0 1.49-.356.413-.931.413-1.287 0a1.175 1.175 0 0 1 0-1.49zm-9.657 11.188c.356-.413.932-.413 1.288 0 .356.412.356 1.08 0 1.491-.356.413-.932.413-1.288 0a1.175 1.175 0 0 1 0-1.491zm-9.656 11.188c.356-.411.931-.411 1.287 0 .356.413.356 1.08 0 1.493-.356.411-.931.411-1.287 0a1.177 1.177 0 0 1 0-1.493zm-9.657 11.19c.356-.413.932-.413 1.288 0 .355.412.355 1.078 0 1.49-.356.413-.932.413-1.288 0a1.175 1.175 0 0 1 0-1.49zm-9.657 11.187c.356-.412.933-.412 1.289 0 .355.413.355 1.08 0 1.492-.356.412-.933.412-1.289 0a1.177 1.177 0 0 1 0-1.492zm-9.656 11.189c.356-.412.932-.412 1.288 0s.356 1.08 0 1.492c-.356.412-.932.412-1.288 0a1.177 1.177 0 0 1 0-1.492zm-9.656 11.189c.356-.413.931-.413 1.287 0 .356.411.356 1.079 0 1.491-.356.413-.931.413-1.287 0a1.175 1.175 0 0 1 0-1.491zm-9.656 11.188c.356-.412.931-.412 1.287 0 .356.413.356 1.08 0 1.492-.356.412-.931.412-1.287 0a1.175 1.175 0 0 1 0-1.492zm-9.657 11.189c.355-.412.932-.412 1.288 0s.356 1.08 0 1.492c-.356.412-.933.412-1.288 0a1.177 1.177 0 0 1 0-1.492zm-9.656 11.188c.356-.412.931-.412 1.287 0 .356.412.356 1.08 0 1.492-.356.412-.93.412-1.287 0a1.175 1.175 0 0 1 0-1.492zm-9.657 11.189c.356-.413.932-.413 1.287 0 .356.412.356 1.079 0 1.491-.355.413-.931.413-1.287 0a1.175 1.175 0 0 1 0-1.491zm-9.656 11.188c.356-.412.932-.412 1.287 0 .356.413.356 1.08 0 1.493-.355.411-.931.411-1.287 0a1.177 1.177 0 0 1 0-1.493zm-9.657 11.19c.356-.413.932-.413 1.288 0 .356.41.356 1.078 0 1.49-.356.413-.932.413-1.288 0a1.175 1.175 0 0 1 0-1.49zm-9.656 11.188c.356-.413.931-.413 1.287 0 .356.412.356 1.08 0 1.491-.356.413-.931.413-1.287 0a1.175 1.175 0 0 1 0-1.491zm-9.656 11.188c.356-.412.931-.412 1.287 0 .356.412.356 1.08 0 1.492-.356.412-.931.412-1.287 0a1.177 1.177 0 0 1 0-1.492zm222.097-234.96c.356-.411.932-.411 1.287 0 .356.413.356 1.08 0 1.493-.355.411-.931.411-1.287 0a1.177 1.177 0 0 1 0-1.493zm9.657 11.189c.356-.412.932-.412 1.288 0 .355.412.355 1.08 0 1.492-.356.412-.932.412-1.288 0a1.175 1.175 0 0 1 0-1.492zm-19.313 0c.356-.412.932-.412 1.287 0 .356.412.356 1.08 0 1.492-.355.412-.931.412-1.287 0a1.175 1.175 0 0 1 0-1.492zm-9.657 11.188c.356-.412.932-.412 1.288 0 .356.413.356 1.08 0 1.493-.356.411-.932.411-1.288 0a1.177 1.177 0 0 1 0-1.493zm-9.656 11.19c.356-.413.931-.413 1.287 0 .356.41.356 1.078 0 1.49-.356.413-.93.413-1.287 0a1.175 1.175 0 0 1 0-1.49zm-9.656 11.188c.356-.413.931-.413 1.287 0 .356.412.356 1.079 0 1.491-.356.413-.931.413-1.287 0a1.175 1.175 0 0 1 0-1.491zm-9.656 11.188c.355-.412.93-.412 1.287 0 .356.413.356 1.08 0 1.492-.356.412-.932.412-1.287 0a1.175 1.175 0 0 1 0-1.492zm-9.657 11.188c.355-.411.932-.411 1.288 0 .356.413.356 1.08 0 1.493-.356.411-.933.411-1.288 0a1.177 1.177 0 0 1 0-1.493zm-9.657 11.19c.356-.413.931-.413 1.287 0 .356.41.356 1.078 0 1.49-.356.413-.93.413-1.287 0a1.175 1.175 0 0 1 0-1.49zm-9.656 11.188c.356-.413.931-.413 1.287 0 .356.412.356 1.08 0 1.491-.356.413-.931.413-1.287 0a1.175 1.175 0 0 1 0-1.491zm-9.656 11.188c.356-.411.93-.411 1.287 0 .356.413.356 1.08 0 1.493-.356.411-.931.411-1.287 0a1.177 1.177 0 0 1 0-1.493zm-9.657 11.19c.356-.413.932-.413 1.288 0 .356.412.356 1.078 0 1.49-.356.413-.932.413-1.288 0a1.175 1.175 0 0 1 0-1.49zm-9.656 11.187c.356-.412.931-.412 1.287 0 .356.413.356 1.08 0 1.492-.356.412-.931.412-1.287 0a1.175 1.175 0 0 1 0-1.492zm-9.657 11.189a.827.827 0 0 1 1.288 0c.355.412.355 1.08 0 1.492a.827.827 0 0 1-1.288 0 1.177 1.177 0 0 1 0-1.492zm-9.657 11.189c.356-.413.933-.413 1.289 0 .355.411.355 1.079 0 1.491-.356.413-.933.413-1.289 0a1.177 1.177 0 0 1 0-1.491zm-9.656 11.188c.356-.412.932-.412 1.288 0 .356.413.356 1.08 0 1.492-.356.412-.932.412-1.288 0a1.175 1.175 0 0 1 0-1.492zm-9.656 11.189c.356-.412.931-.412 1.287 0 .356.412.356 1.08 0 1.492-.356.412-.931.412-1.287 0a1.177 1.177 0 0 1 0-1.492zm-9.656 11.188c.356-.412.931-.412 1.287 0 .356.412.356 1.08 0 1.492-.356.412-.931.412-1.287 0a1.175 1.175 0 0 1 0-1.492zm-9.657 11.189c.355-.413.932-.413 1.288 0 .356.412.356 1.079 0 1.491-.356.413-.933.413-1.288 0a1.175 1.175 0 0 1 0-1.491zm-9.656 11.188c.356-.412.931-.412 1.287 0 .356.413.356 1.08 0 1.493-.356.411-.93.411-1.287 0a1.177 1.177 0 0 1 0-1.493zm-9.657 11.19c.356-.413.932-.413 1.287 0 .356.41.356 1.078 0 1.49-.355.413-.931.413-1.287 0a1.175 1.175 0 0 1 0-1.49zm-9.656 11.188c.356-.413.932-.413 1.287 0 .356.412.356 1.08 0 1.491-.355.413-.931.413-1.287 0a1.175 1.175 0 0 1 0-1.491zm-9.657 11.188c.356-.412.932-.412 1.288 0s.356 1.08 0 1.492c-.356.412-.932.412-1.288 0a1.177 1.177 0 0 1 0-1.492zm-9.656 11.189c.356-.413.931-.413 1.287 0 .356.411.356 1.079 0 1.491-.356.413-.931.413-1.287 0a1.175 1.175 0 0 1 0-1.491zM241.677 67.44c.356-.412.932-.412 1.287 0 .356.413.356 1.08 0 1.493-.355.411-.931.411-1.287 0a1.177 1.177 0 0 1 0-1.493zm-9.656 11.19c.356-.413.932-.413 1.287 0 .356.41.356 1.078 0 1.49-.355.413-.931.413-1.287 0a1.175 1.175 0 0 1 0-1.49zm-9.657 11.188c.356-.413.932-.413 1.288 0 .356.412.356 1.079 0 1.491-.356.413-.932.413-1.288 0a1.175 1.175 0 0 1 0-1.491zm-9.656 11.188c.356-.412.931-.412 1.287 0 .356.413.356 1.08 0 1.492-.356.412-.93.412-1.287 0a1.175 1.175 0 0 1 0-1.492zm-9.656 11.188c.356-.411.931-.411 1.287 0 .356.413.356 1.08 0 1.493-.356.411-.931.411-1.287 0a1.177 1.177 0 0 1 0-1.493zm-9.656 11.19c.355-.413.93-.413 1.287 0 .356.41.356 1.078 0 1.49-.356.413-.932.413-1.287 0a1.175 1.175 0 0 1 0-1.49zm-9.657 11.188c.355-.413.932-.413 1.288 0 .356.412.356 1.08 0 1.491-.356.413-.933.413-1.288 0a1.175 1.175 0 0 1 0-1.491zm-9.657 11.188c.356-.411.931-.411 1.287 0 .356.413.356 1.08 0 1.493-.356.411-.93.411-1.287 0a1.177 1.177 0 0 1 0-1.493zm-9.656 11.19c.356-.413.931-.413 1.287 0 .356.412.356 1.078 0 1.49-.356.413-.931.413-1.287 0a1.175 1.175 0 0 1 0-1.49zm-9.656 11.187c.356-.412.93-.412 1.287 0 .356.413.356 1.08 0 1.492-.356.412-.931.412-1.287 0a1.175 1.175 0 0 1 0-1.492zm-9.657 11.189c.356-.412.932-.412 1.288 0s.356 1.08 0 1.492c-.356.412-.932.412-1.288 0a1.177 1.177 0 0 1 0-1.492zm-9.656 11.189c.356-.413.931-.413 1.287 0 .356.411.356 1.079 0 1.491-.356.413-.931.413-1.287 0a1.175 1.175 0 0 1 0-1.491zm-9.657 11.188c.356-.412.932-.412 1.288 0 .355.413.355 1.08 0 1.492-.356.412-.932.412-1.288 0a1.175 1.175 0 0 1 0-1.492zm-9.657 11.189a.827.827 0 0 1 1.289 0c.355.412.355 1.08 0 1.492a.827.827 0 0 1-1.289 0 1.179 1.179 0 0 1 0-1.492zm-9.656 11.188c.356-.412.932-.412 1.288 0s.356 1.08 0 1.492c-.356.412-.932.412-1.288 0a1.175 1.175 0 0 1 0-1.492zm-9.656 11.189c.356-.413.931-.413 1.287 0 .356.412.356 1.079 0 1.491-.356.413-.931.413-1.287 0a1.175 1.175 0 0 1 0-1.491zm-9.656 11.188c.356-.412.931-.412 1.287 0 .356.413.356 1.08 0 1.493-.356.411-.931.411-1.287 0a1.177 1.177 0 0 1 0-1.493zm-9.657 11.19c.355-.413.932-.413 1.288 0 .356.41.356 1.078 0 1.49-.356.413-.933.413-1.288 0a1.175 1.175 0 0 1 0-1.49zm-9.656 11.188c.356-.413.931-.413 1.287 0 .356.412.356 1.08 0 1.491-.356.413-.93.413-1.287 0a1.175 1.175 0 0 1 0-1.491zm-9.657 11.188c.356-.412.932-.412 1.287 0 .356.412.356 1.08 0 1.492-.355.412-.931.412-1.287 0a1.177 1.177 0 0 1 0-1.492zm-9.656 11.189c.356-.413.932-.413 1.287 0 .356.411.356 1.079 0 1.491-.355.413-.931.413-1.287 0a1.175 1.175 0 0 1 0-1.491zM38.892 302.4c.356-.412.932-.412 1.288 0 .356.413.356 1.08 0 1.492-.356.412-.932.412-1.288 0a1.175 1.175 0 0 1 0-1.492zM260.99 67.44c.356-.412.932-.412 1.288 0 .356.413.356 1.08 0 1.493-.356.411-.932.411-1.288 0a1.177 1.177 0 0 1 0-1.493zm9.657 11.19c.356-.413.931-.413 1.287 0 .356.41.356 1.078 0 1.49-.356.413-.931.413-1.287 0a1.175 1.175 0 0 1 0-1.49zm-19.313 0c.356-.413.932-.413 1.288 0 .355.41.355 1.078 0 1.49-.356.413-.932.413-1.288 0a1.175 1.175 0 0 1 0-1.49zm-9.657 11.188c.356-.413.932-.413 1.287 0 .356.412.356 1.079 0 1.491-.355.413-.931.413-1.287 0a1.175 1.175 0 0 1 0-1.491zm-9.656 11.188c.356-.412.932-.412 1.287 0 .356.413.356 1.08 0 1.492-.355.412-.931.412-1.287 0a1.175 1.175 0 0 1 0-1.492zm-9.657 11.188c.356-.411.932-.411 1.288 0 .356.413.356 1.08 0 1.493-.356.411-.932.411-1.288 0a1.177 1.177 0 0 1 0-1.493zm-9.656 11.19c.356-.413.931-.413 1.287 0 .356.41.356 1.078 0 1.49-.356.413-.93.413-1.287 0a1.175 1.175 0 0 1 0-1.49zm-9.656 11.188c.356-.413.931-.413 1.287 0 .356.412.356 1.08 0 1.491-.356.413-.931.413-1.287 0a1.175 1.175 0 0 1 0-1.491zm-9.656 11.188c.355-.411.93-.411 1.287 0 .356.413.356 1.08 0 1.493-.356.411-.932.411-1.287 0a1.177 1.177 0 0 1 0-1.493zm-9.657 11.19c.355-.413.932-.413 1.288 0 .356.412.356 1.078 0 1.49-.356.413-.933.413-1.288 0a1.175 1.175 0 0 1 0-1.49zm-9.657 11.187c.356-.412.931-.412 1.287 0 .356.413.356 1.08 0 1.492-.356.412-.93.412-1.287 0a1.175 1.175 0 0 1 0-1.492zm-9.656 11.189c.356-.412.931-.412 1.287 0 .356.412.356 1.08 0 1.492-.356.412-.931.412-1.287 0a1.177 1.177 0 0 1 0-1.492zm-9.656 11.189c.356-.413.93-.413 1.287 0 .356.411.356 1.079 0 1.491-.356.413-.931.413-1.287 0a1.175 1.175 0 0 1 0-1.491zm-9.657 11.188c.356-.412.932-.412 1.288 0 .356.413.356 1.08 0 1.492-.356.412-.932.412-1.288 0a1.175 1.175 0 0 1 0-1.492zm-9.656 11.189c.356-.412.931-.412 1.287 0 .356.412.356 1.08 0 1.492-.356.412-.931.412-1.287 0a1.177 1.177 0 0 1 0-1.492zM125.8 224.08c.356-.412.932-.412 1.288 0 .355.412.355 1.08 0 1.492-.356.412-.932.412-1.288 0a1.175 1.175 0 0 1 0-1.492zm-9.657 11.189c.356-.413.933-.413 1.289 0 .355.412.355 1.079 0 1.491-.356.413-.933.413-1.289 0a1.177 1.177 0 0 1 0-1.491zm-9.656 11.188c.356-.412.932-.412 1.288 0 .356.413.356 1.08 0 1.493-.356.411-.932.411-1.288 0a1.177 1.177 0 0 1 0-1.493zm-9.656 11.19c.356-.413.931-.413 1.287 0 .356.41.356 1.078 0 1.49-.356.413-.931.413-1.287 0a1.175 1.175 0 0 1 0-1.49zm-9.656 11.188c.356-.413.931-.413 1.287 0 .356.412.356 1.08 0 1.491-.356.413-.931.413-1.287 0a1.175 1.175 0 0 1 0-1.491zm-9.657 11.188c.355-.412.932-.412 1.288 0s.356 1.08 0 1.492c-.356.412-.933.412-1.288 0a1.177 1.177 0 0 1 0-1.492zm-9.656 11.189c.356-.413.931-.413 1.287 0 .356.411.356 1.079 0 1.491-.356.413-.93.413-1.287 0a1.175 1.175 0 0 1 0-1.491zM58.205 302.4c.356-.412.932-.412 1.287 0 .356.413.356 1.08 0 1.492-.355.412-.931.412-1.287 0a1.175 1.175 0 0 1 0-1.492zm-9.656 11.189c.356-.413.932-.413 1.287 0 .356.412.356 1.08 0 1.491-.355.413-.931.413-1.287 0a1.175 1.175 0 0 1 0-1.491zM260.99 89.818c.356-.413.932-.413 1.288 0 .356.412.356 1.079 0 1.491-.356.413-.932.413-1.288 0a1.175 1.175 0 0 1 0-1.491zm-9.656 11.188c.356-.412.932-.412 1.288 0 .355.413.355 1.08 0 1.492-.356.412-.932.412-1.288 0a1.175 1.175 0 0 1 0-1.492zm-9.657 11.188c.356-.411.932-.411 1.287 0 .356.413.356 1.08 0 1.493-.355.411-.931.411-1.287 0a1.177 1.177 0 0 1 0-1.493zm-9.656 11.19c.356-.413.932-.413 1.287 0 .356.41.356 1.078 0 1.49-.355.413-.931.413-1.287 0a1.175 1.175 0 0 1 0-1.49zm-9.657 11.188c.356-.413.932-.413 1.288 0 .356.412.356 1.08 0 1.491-.356.413-.932.413-1.288 0a1.175 1.175 0 0 1 0-1.491zm-9.656 11.188c.356-.411.931-.411 1.287 0 .356.413.356 1.08 0 1.493-.356.411-.93.411-1.287 0a1.177 1.177 0 0 1 0-1.493zm-9.656 11.19c.356-.413.931-.413 1.287 0 .356.412.356 1.078 0 1.49-.356.413-.931.413-1.287 0a1.175 1.175 0 0 1 0-1.49zm-9.656 11.187c.355-.412.93-.412 1.287 0 .356.413.356 1.08 0 1.492-.356.412-.932.412-1.287 0a1.175 1.175 0 0 1 0-1.492zm-9.657 11.189c.355-.412.932-.412 1.288 0s.356 1.08 0 1.492c-.356.412-.933.412-1.288 0a1.177 1.177 0 0 1 0-1.492zm-9.657 11.189c.356-.413.931-.413 1.287 0 .356.411.356 1.079 0 1.491-.356.413-.93.413-1.287 0a1.175 1.175 0 0 1 0-1.491zm-9.656 11.188c.356-.412.931-.412 1.287 0 .356.413.356 1.08 0 1.492-.356.412-.931.412-1.287 0a1.175 1.175 0 0 1 0-1.492zm-9.656 11.189c.356-.412.93-.412 1.287 0 .356.412.356 1.08 0 1.492-.356.412-.931.412-1.287 0a1.177 1.177 0 0 1 0-1.492zm-9.657 11.188c.356-.412.932-.412 1.288 0s.356 1.08 0 1.492c-.356.412-.932.412-1.288 0a1.175 1.175 0 0 1 0-1.492zm-9.656 11.189c.356-.413.931-.413 1.287 0 .356.412.356 1.079 0 1.491-.356.413-.931.413-1.287 0a1.175 1.175 0 0 1 0-1.491zm-9.657 11.188c.356-.412.932-.412 1.288 0 .355.413.355 1.08 0 1.493a.827.827 0 0 1-1.288 0 1.177 1.177 0 0 1 0-1.493zm-9.657 11.19c.356-.413.933-.413 1.289 0 .355.41.355 1.078 0 1.49-.356.413-.933.413-1.289 0a1.177 1.177 0 0 1 0-1.49zm-9.656 11.188c.356-.413.932-.413 1.288 0 .356.412.356 1.08 0 1.491-.356.413-.932.413-1.288 0a1.175 1.175 0 0 1 0-1.491zm-9.656 11.188c.356-.412.931-.412 1.287 0 .356.412.356 1.08 0 1.492-.356.412-.931.412-1.287 0a1.177 1.177 0 0 1 0-1.492zm-9.656 11.189c.356-.413.931-.413 1.287 0 .356.411.356 1.079 0 1.491-.356.413-.931.413-1.287 0a1.175 1.175 0 0 1 0-1.491zM77.518 302.4c.355-.412.932-.412 1.288 0 .356.413.356 1.08 0 1.492-.356.412-.933.412-1.288 0a1.175 1.175 0 0 1 0-1.492zm-9.656 11.189c.356-.413.931-.413 1.287 0 .356.412.356 1.08 0 1.491-.356.413-.93.413-1.287 0a1.175 1.175 0 0 1 0-1.491zm-9.657 11.188c.356-.411.932-.411 1.287 0 .356.412.356 1.08 0 1.493-.355.411-.931.411-1.287 0a1.177 1.177 0 0 1 0-1.493zm222.098-234.96c.356-.412.931-.412 1.287 0 .356.413.356 1.08 0 1.492-.356.413-.931.413-1.287 0a1.175 1.175 0 0 1 0-1.491zm9.656 11.19c.356-.413.932-.413 1.288 0 .356.412.356 1.08 0 1.49-.356.413-.932.413-1.288 0a1.175 1.175 0 0 1 0-1.49zm-19.312 0c.356-.413.931-.413 1.287 0 .356.412.356 1.08 0 1.49-.356.413-.931.413-1.287 0a1.175 1.175 0 0 1 0-1.49zm-9.657 11.187c.356-.411.932-.411 1.288 0 .356.413.356 1.08 0 1.493-.356.411-.932.411-1.288 0a1.177 1.177 0 0 1 0-1.493zm-9.656 11.19c.356-.413.932-.413 1.288 0 .355.41.355 1.078 0 1.49-.356.413-.932.413-1.288 0a1.175 1.175 0 0 1 0-1.49zm-9.657 11.188c.356-.413.932-.413 1.287 0 .356.412.356 1.08 0 1.491-.355.413-.931.413-1.287 0a1.175 1.175 0 0 1 0-1.491zm-9.656 11.188c.356-.411.932-.411 1.287 0 .356.413.356 1.08 0 1.493-.355.411-.931.411-1.287 0a1.177 1.177 0 0 1 0-1.493zm-9.657 11.19c.356-.413.932-.413 1.288 0 .356.412.356 1.078 0 1.49-.356.413-.932.413-1.288 0a1.175 1.175 0 0 1 0-1.49zm-9.656 11.187c.356-.412.931-.412 1.287 0 .356.413.356 1.08 0 1.492-.356.412-.93.412-1.287 0a1.175 1.175 0 0 1 0-1.492zm-9.656 11.189c.356-.412.931-.412 1.287 0 .356.412.356 1.08 0 1.492-.356.412-.931.412-1.287 0a1.177 1.177 0 0 1 0-1.492zm-9.656 11.189c.355-.413.93-.413 1.287 0 .356.411.356 1.079 0 1.491-.356.413-.932.413-1.287 0a1.175 1.175 0 0 1 0-1.491zm-9.657 11.188c.355-.412.932-.412 1.288 0 .356.413.356 1.08 0 1.492-.356.412-.933.412-1.288 0a1.175 1.175 0 0 1 0-1.492zm-9.657 11.189c.356-.412.931-.412 1.287 0 .356.412.356 1.08 0 1.492-.356.412-.93.412-1.287 0a1.177 1.177 0 0 1 0-1.492zm-9.656 11.188c.356-.412.931-.412 1.287 0 .356.412.356 1.08 0 1.492-.356.412-.931.412-1.287 0a1.175 1.175 0 0 1 0-1.492zm-9.656 11.189c.356-.413.93-.413 1.287 0 .356.412.356 1.079 0 1.491-.356.413-.931.413-1.287 0a1.175 1.175 0 0 1 0-1.491zm-9.657 11.188c.356-.412.932-.412 1.288 0 .356.413.356 1.08 0 1.493-.356.411-.932.411-1.288 0a1.177 1.177 0 0 1 0-1.493zm-9.656 11.19c.356-.413.931-.413 1.287 0 .356.41.356 1.078 0 1.49-.356.413-.931.413-1.287 0a1.175 1.175 0 0 1 0-1.49zm-9.657 11.188c.356-.413.932-.413 1.288 0 .355.412.355 1.08 0 1.491-.356.413-.932.413-1.288 0a1.175 1.175 0 0 1 0-1.491zm-9.657 11.188a.827.827 0 0 1 1.289 0c.355.412.355 1.08 0 1.492a.827.827 0 0 1-1.289 0 1.179 1.179 0 0 1 0-1.492zm-9.656 11.189c.356-.413.932-.413 1.288 0 .356.411.356 1.079 0 1.491-.356.413-.932.413-1.288 0a1.175 1.175 0 0 1 0-1.491zM96.831 302.4c.356-.412.931-.412 1.287 0 .356.413.356 1.08 0 1.492-.356.412-.931.412-1.287 0a1.175 1.175 0 0 1 0-1.492zm-9.656 11.189c.356-.413.931-.413 1.287 0 .356.412.356 1.08 0 1.491-.356.413-.931.413-1.287 0a1.175 1.175 0 0 1 0-1.491zm-9.657 11.188c.355-.411.932-.411 1.288 0 .356.412.356 1.08 0 1.493-.356.411-.933.411-1.288 0a1.177 1.177 0 0 1 0-1.493zm-9.656 11.189c.356-.413.931-.413 1.287 0 .356.412.356 1.079 0 1.491-.356.413-.93.413-1.287 0a1.175 1.175 0 0 1 0-1.491zm212.441-223.772c.356-.411.931-.411 1.287 0 .356.413.356 1.08 0 1.493-.356.411-.931.411-1.287 0a1.177 1.177 0 0 1 0-1.493zm-9.656 11.19c.356-.413.931-.413 1.287 0 .356.41.356 1.078 0 1.49-.356.413-.931.413-1.287 0a1.175 1.175 0 0 1 0-1.49zm-9.657 11.188c.356-.413.932-.413 1.288 0 .356.412.356 1.08 0 1.491-.356.413-.932.413-1.288 0a1.175 1.175 0 0 1 0-1.491zm-9.656 11.188c.356-.411.932-.411 1.288 0 .355.413.355 1.08 0 1.493-.356.411-.932.411-1.288 0a1.177 1.177 0 0 1 0-1.493zm-9.657 11.19c.356-.413.932-.413 1.287 0 .356.412.356 1.078 0 1.49-.355.413-.931.413-1.287 0a1.175 1.175 0 0 1 0-1.49zm-9.656 11.187c.356-.412.932-.412 1.287 0 .356.413.356 1.08 0 1.492-.355.412-.931.412-1.287 0a1.175 1.175 0 0 1 0-1.492zm-9.657 11.189c.356-.412.932-.412 1.288 0s.356 1.08 0 1.492c-.356.412-.932.412-1.288 0a1.177 1.177 0 0 1 0-1.492zm-9.656 11.189c.356-.413.931-.413 1.287 0 .356.411.356 1.079 0 1.491-.356.413-.93.413-1.287 0a1.175 1.175 0 0 1 0-1.491zm-9.656 11.188c.356-.412.931-.412 1.287 0 .356.413.356 1.08 0 1.492-.356.412-.931.412-1.287 0a1.175 1.175 0 0 1 0-1.492zm-9.656 11.189c.355-.412.93-.412 1.287 0 .356.412.356 1.08 0 1.492-.356.412-.932.412-1.287 0a1.177 1.177 0 0 1 0-1.492zm-9.657 11.188c.355-.412.932-.412 1.288 0s.356 1.08 0 1.492c-.356.412-.933.412-1.288 0a1.175 1.175 0 0 1 0-1.492zm-9.657 11.189c.356-.413.931-.413 1.287 0 .356.412.356 1.079 0 1.491-.356.413-.93.413-1.287 0a1.175 1.175 0 0 1 0-1.491zm-9.656 11.188c.356-.412.931-.412 1.287 0 .356.413.356 1.08 0 1.493-.356.411-.931.411-1.287 0a1.177 1.177 0 0 1 0-1.493zm-9.656 11.19c.356-.413.93-.413 1.287 0 .356.41.356 1.078 0 1.49-.356.413-.931.413-1.287 0a1.175 1.175 0 0 1 0-1.49zm-9.657 11.188c.356-.413.932-.413 1.288 0 .356.412.356 1.08 0 1.491-.356.413-.932.413-1.288 0a1.175 1.175 0 0 1 0-1.491zm-9.656 11.188c.356-.412.931-.412 1.287 0 .356.412.356 1.08 0 1.492-.356.412-.931.412-1.287 0a1.177 1.177 0 0 1 0-1.492zm-9.657 11.189c.356-.413.932-.413 1.288 0 .355.411.355 1.079 0 1.491-.356.413-.932.413-1.288 0a1.175 1.175 0 0 1 0-1.491zm-9.657 11.188c.356-.412.933-.412 1.289 0 .355.413.355 1.08 0 1.492-.356.412-.933.412-1.289 0a1.177 1.177 0 0 1 0-1.492zm-9.656 11.189c.356-.413.932-.413 1.288 0 .356.412.356 1.08 0 1.491-.356.413-.932.413-1.288 0a1.175 1.175 0 0 1 0-1.491zm-9.656 11.188c.356-.411.931-.411 1.287 0 .356.412.356 1.08 0 1.493-.356.411-.931.411-1.287 0a1.177 1.177 0 0 1 0-1.493zm-9.656 11.189c.356-.413.931-.413 1.287 0 .356.412.356 1.079 0 1.491-.356.413-.931.413-1.287 0a1.175 1.175 0 0 1 0-1.491zm-9.657 11.188c.355-.412.932-.412 1.288 0 .356.413.356 1.08 0 1.493-.356.411-.933.411-1.288 0a1.177 1.177 0 0 1 0-1.493zm222.098-234.96a.827.827 0 0 1 1.288 0c.356.413.356 1.08 0 1.493a.827.827 0 0 1-1.288 0 1.179 1.179 0 0 1 0-1.493zm9.656 11.19c.356-.413.932-.413 1.288 0 .355.41.355 1.078 0 1.49-.356.413-.932.413-1.288 0a1.177 1.177 0 0 1 0-1.49zm-19.313 0c.356-.413.932-.413 1.288 0 .356.41.356 1.078 0 1.49-.356.413-.932.413-1.288 0a1.175 1.175 0 0 1 0-1.49zm-9.656 11.188c.356-.413.931-.413 1.287 0 .356.412.356 1.08 0 1.491-.356.413-.931.413-1.287 0a1.175 1.175 0 0 1 0-1.491zm-9.656 11.188c.356-.411.931-.411 1.287 0 .356.413.356 1.08 0 1.493-.356.411-.931.411-1.287 0a1.177 1.177 0 0 1 0-1.493zm-9.657 11.19c.356-.413.932-.413 1.288 0 .356.412.356 1.078 0 1.49-.356.413-.932.413-1.288 0a1.175 1.175 0 0 1 0-1.49zm-9.656 11.187c.356-.412.932-.412 1.288 0 .355.413.355 1.08 0 1.492-.356.412-.932.412-1.288 0a1.175 1.175 0 0 1 0-1.492zm-9.657 11.189c.356-.412.932-.412 1.287 0 .356.412.356 1.08 0 1.492-.355.412-.931.412-1.287 0a1.177 1.177 0 0 1 0-1.492zm-9.656 11.189c.356-.413.932-.413 1.287 0 .356.411.356 1.079 0 1.491-.355.413-.931.413-1.287 0a1.175 1.175 0 0 1 0-1.491zm-9.657 11.188c.356-.412.932-.412 1.288 0 .356.413.356 1.08 0 1.492-.356.412-.932.412-1.288 0a1.175 1.175 0 0 1 0-1.492zm-9.656 11.189c.356-.412.931-.412 1.287 0 .356.412.356 1.08 0 1.492-.356.412-.93.412-1.287 0a1.177 1.177 0 0 1 0-1.492zm-9.656 11.188c.356-.412.931-.412 1.287 0 .356.412.356 1.08 0 1.492-.356.412-.931.412-1.287 0a1.175 1.175 0 0 1 0-1.492zm-9.656 11.189c.355-.413.93-.413 1.287 0 .356.412.356 1.079 0 1.491-.356.413-.932.413-1.287 0a1.175 1.175 0 0 1 0-1.491zm-9.657 11.188c.355-.412.932-.412 1.288 0 .356.413.356 1.08 0 1.493-.356.411-.933.411-1.288 0a1.177 1.177 0 0 1 0-1.493zm-9.657 11.19c.356-.413.931-.413 1.287 0 .356.41.356 1.078 0 1.49-.356.413-.93.413-1.287 0a1.175 1.175 0 0 1 0-1.49zm-9.656 11.188c.356-.413.931-.413 1.287 0 .356.412.356 1.08 0 1.491-.356.413-.931.413-1.287 0a1.175 1.175 0 0 1 0-1.491zm-9.656 11.188c.356-.412.93-.412 1.287 0 .356.412.356 1.08 0 1.492-.356.412-.931.412-1.287 0a1.177 1.177 0 0 1 0-1.492zm-9.657 11.189c.356-.413.932-.413 1.288 0 .356.411.356 1.079 0 1.491-.356.413-.932.413-1.288 0a1.175 1.175 0 0 1 0-1.491zm-9.656 11.188c.356-.412.931-.412 1.287 0 .356.413.356 1.08 0 1.492-.356.412-.931.412-1.287 0a1.175 1.175 0 0 1 0-1.492zM125.8 313.59c.356-.413.932-.413 1.288 0 .355.412.355 1.08 0 1.491-.356.413-.932.413-1.288 0a1.175 1.175 0 0 1 0-1.491zm-9.657 11.188a.827.827 0 0 1 1.289 0c.355.412.355 1.08 0 1.493a.827.827 0 0 1-1.289 0 1.179 1.179 0 0 1 0-1.493zm-9.656 11.189c.356-.413.932-.413 1.288 0 .356.412.356 1.079 0 1.491-.356.413-.932.413-1.288 0a1.175 1.175 0 0 1 0-1.491zm-9.656 11.188c.356-.412.931-.412 1.287 0 .356.413.356 1.08 0 1.493-.356.411-.931.411-1.287 0a1.177 1.177 0 0 1 0-1.493zm-9.656 11.19c.356-.413.931-.413 1.287 0 .356.41.356 1.078 0 1.49-.356.413-.931.413-1.287 0a1.175 1.175 0 0 1 0-1.49zm212.44-223.772c.357-.413.933-.413 1.289 0 .356.412.356 1.08 0 1.491-.356.413-.932.413-1.288 0a1.177 1.177 0 0 1 0-1.491zm-9.656 11.188c.356-.411.932-.411 1.288 0 .356.413.356 1.08 0 1.493-.356.411-.932.411-1.288 0a1.177 1.177 0 0 1 0-1.493zm-9.656 11.19c.356-.413.931-.413 1.287 0 .356.412.356 1.078 0 1.49-.356.413-.931.413-1.287 0a1.175 1.175 0 0 1 0-1.49zm-9.656 11.187c.356-.412.931-.412 1.287 0 .356.413.356 1.08 0 1.492-.356.412-.931.412-1.287 0a1.175 1.175 0 0 1 0-1.492zm-9.657 11.189c.356-.412.932-.412 1.288 0s.356 1.08 0 1.492c-.356.412-.932.412-1.288 0a1.177 1.177 0 0 1 0-1.492zm-9.656 11.189c.356-.413.932-.413 1.288 0 .355.411.355 1.079 0 1.491-.356.413-.932.413-1.288 0a1.175 1.175 0 0 1 0-1.491zm-9.657 11.188c.356-.412.932-.412 1.287 0 .356.413.356 1.08 0 1.492-.355.412-.931.412-1.287 0a1.175 1.175 0 0 1 0-1.492zm-9.656 11.189c.356-.412.932-.412 1.287 0 .356.412.356 1.08 0 1.492-.355.412-.931.412-1.287 0a1.177 1.177 0 0 1 0-1.492zm-9.657 11.188c.356-.412.932-.412 1.288 0s.356 1.08 0 1.492c-.356.412-.932.412-1.288 0a1.175 1.175 0 0 1 0-1.492zm-9.656 11.189c.356-.413.931-.413 1.287 0 .356.412.356 1.079 0 1.491-.356.413-.93.413-1.287 0a1.175 1.175 0 0 1 0-1.491zm-9.656 11.188c.356-.412.931-.412 1.287 0 .356.413.356 1.08 0 1.493-.356.411-.931.411-1.287 0a1.177 1.177 0 0 1 0-1.493zm-9.656 11.19c.355-.413.93-.413 1.287 0 .356.41.356 1.078 0 1.49-.356.413-.932.413-1.287 0a1.175 1.175 0 0 1 0-1.49zm-9.657 11.188c.355-.413.932-.413 1.288 0 .356.412.356 1.08 0 1.491-.356.413-.933.413-1.288 0a1.175 1.175 0 0 1 0-1.491zm-9.657 11.188c.356-.412.931-.412 1.287 0 .356.412.356 1.08 0 1.492-.356.412-.93.412-1.287 0a1.177 1.177 0 0 1 0-1.492zm-9.656 11.189c.356-.413.931-.413 1.287 0 .356.411.356 1.079 0 1.491-.356.413-.931.413-1.287 0a1.175 1.175 0 0 1 0-1.491zM154.77 302.4c.356-.412.93-.412 1.287 0 .356.413.356 1.08 0 1.492-.356.412-.931.412-1.287 0a1.175 1.175 0 0 1 0-1.492zm-9.657 11.189c.356-.413.932-.413 1.288 0 .356.412.356 1.08 0 1.491-.356.413-.932.413-1.288 0a1.175 1.175 0 0 1 0-1.491zm-9.656 11.188c.356-.411.931-.411 1.287 0 .356.412.356 1.08 0 1.493-.356.411-.931.411-1.287 0a1.177 1.177 0 0 1 0-1.493zm-9.657 11.189c.356-.413.932-.413 1.288 0 .355.412.355 1.079 0 1.491-.356.413-.932.413-1.288 0a1.175 1.175 0 0 1 0-1.491zm-9.657 11.188c.356-.412.933-.412 1.289 0 .355.413.355 1.08 0 1.493a.827.827 0 0 1-1.289 0 1.179 1.179 0 0 1 0-1.493zm-9.656 11.19c.356-.413.932-.413 1.288 0 .356.41.356 1.078 0 1.49-.356.413-.932.413-1.288 0a1.175 1.175 0 0 1 0-1.49zm-9.656 11.187c.356-.412.931-.412 1.287 0 .356.413.356 1.08 0 1.492-.356.413-.931.413-1.287 0a1.175 1.175 0 0 1 0-1.492zm222.098-234.96c.356-.412.931-.412 1.287 0 .356.413.356 1.08 0 1.492-.356.413-.931.413-1.287 0a1.175 1.175 0 0 1 0-1.491zm9.656 11.19c.356-.412.932-.412 1.288 0s.356 1.08 0 1.492c-.356.411-.932.411-1.288 0a1.177 1.177 0 0 1 0-1.493zm-19.313 0a.827.827 0 0 1 1.288 0c.355.412.355 1.08 0 1.492a.827.827 0 0 1-1.288 0 1.179 1.179 0 0 1 0-1.493zm-9.656 11.188c.356-.412.932-.412 1.288 0 .356.413.356 1.08 0 1.492-.356.412-.932.412-1.288 0a1.177 1.177 0 0 1 0-1.492zm-9.657 11.188c.356-.412.932-.412 1.288 0 .356.413.356 1.08 0 1.492-.356.412-.932.412-1.288 0a1.175 1.175 0 0 1 0-1.492zm-9.656 11.189c.356-.412.931-.412 1.287 0 .356.412.356 1.08 0 1.492-.356.412-.931.412-1.287 0a1.177 1.177 0 0 1 0-1.492zm-9.656 11.189c.356-.413.931-.413 1.287 0 .356.411.356 1.079 0 1.491-.356.413-.931.413-1.287 0a1.175 1.175 0 0 1 0-1.491zm-9.657 11.188c.356-.412.932-.412 1.288 0 .356.413.356 1.08 0 1.492-.356.412-.932.412-1.288 0a1.175 1.175 0 0 1 0-1.492zm-9.656 11.189c.356-.412.932-.412 1.288 0 .355.412.355 1.08 0 1.492-.356.412-.932.412-1.288 0a1.177 1.177 0 0 1 0-1.492zm-9.657 11.188c.356-.412.932-.412 1.287 0 .356.412.356 1.08 0 1.492-.355.412-.931.412-1.287 0a1.175 1.175 0 0 1 0-1.492zm-9.656 11.189c.356-.413.932-.413 1.287 0 .356.412.356 1.079 0 1.491-.355.413-.931.413-1.287 0a1.175 1.175 0 0 1 0-1.491zm-9.657 11.188c.356-.412.932-.412 1.288 0 .356.413.356 1.08 0 1.493-.356.411-.932.411-1.288 0a1.177 1.177 0 0 1 0-1.493zm-9.656 11.19c.356-.413.931-.413 1.287 0 .356.41.356 1.078 0 1.49-.356.413-.93.413-1.287 0a1.175 1.175 0 0 1 0-1.49zm-9.656 11.188c.356-.413.931-.413 1.287 0 .356.412.356 1.08 0 1.491-.356.413-.931.413-1.287 0a1.175 1.175 0 0 1 0-1.491zm-9.656 11.188c.355-.412.93-.412 1.287 0 .356.412.356 1.08 0 1.492-.356.412-.932.412-1.287 0a1.177 1.177 0 0 1 0-1.492zm-9.657 11.189c.355-.413.932-.413 1.288 0 .356.411.356 1.079 0 1.491-.356.413-.933.413-1.288 0a1.175 1.175 0 0 1 0-1.491zm-9.657 11.188c.356-.412.931-.412 1.287 0 .356.413.356 1.08 0 1.492-.356.412-.93.412-1.287 0a1.175 1.175 0 0 1 0-1.492zm-9.656 11.189c.356-.413.931-.413 1.287 0 .356.412.356 1.08 0 1.491-.356.413-.931.413-1.287 0a1.175 1.175 0 0 1 0-1.491zm-9.656 11.188c.356-.411.93-.411 1.287 0 .356.412.356 1.08 0 1.493-.356.411-.931.411-1.287 0a1.177 1.177 0 0 1 0-1.493zm-9.657 11.189c.356-.413.932-.413 1.288 0 .356.412.356 1.079 0 1.491-.356.413-.932.413-1.288 0a1.175 1.175 0 0 1 0-1.491zm-9.656 11.188c.356-.412.931-.412 1.287 0 .356.413.356 1.08 0 1.493-.356.411-.931.411-1.287 0a1.177 1.177 0 0 1 0-1.493zm-9.657 11.19c.356-.413.932-.413 1.288 0 .355.41.355 1.078 0 1.49-.356.413-.932.413-1.288 0a1.175 1.175 0 0 1 0-1.49zm-9.657 11.187c.356-.412.933-.412 1.289 0 .355.413.355 1.08 0 1.492-.356.413-.933.413-1.289 0a1.177 1.177 0 0 1 0-1.492zm-9.656 11.189c.356-.413.932-.413 1.288 0 .356.412.356 1.08 0 1.492-.356.412-.932.412-1.288 0a1.175 1.175 0 0 1 0-1.492zM318.93 156.95c.356-.413.931-.413 1.287 0 .356.412.356 1.078 0 1.49-.356.413-.931.413-1.287 0a1.175 1.175 0 0 1 0-1.49zm-9.657 11.187c.356-.412.932-.412 1.288 0 .355.413.355 1.08 0 1.492-.356.412-.932.412-1.288 0a1.177 1.177 0 0 1 0-1.492zm-9.656 11.189a.827.827 0 0 1 1.288 0c.356.412.356 1.08 0 1.492a.827.827 0 0 1-1.288 0 1.179 1.179 0 0 1 0-1.492zm-9.657 11.189c.356-.413.932-.413 1.288 0 .356.411.356 1.079 0 1.491-.356.413-.932.413-1.288 0a1.175 1.175 0 0 1 0-1.491zm-9.656 11.188c.356-.412.931-.412 1.287 0 .356.413.356 1.08 0 1.492-.356.412-.931.412-1.287 0a1.175 1.175 0 0 1 0-1.492zm-9.656 11.189c.356-.412.931-.412 1.287 0 .356.412.356 1.08 0 1.492-.356.412-.931.412-1.287 0a1.177 1.177 0 0 1 0-1.492zm-9.657 11.188c.356-.412.932-.412 1.288 0s.356 1.08 0 1.492c-.356.412-.932.412-1.288 0a1.175 1.175 0 0 1 0-1.492zm-9.656 11.189c.356-.413.932-.413 1.288 0 .355.412.355 1.079 0 1.491-.356.413-.932.413-1.288 0a1.175 1.175 0 0 1 0-1.491zm-9.657 11.188c.356-.412.932-.412 1.287 0 .356.413.356 1.08 0 1.493-.355.411-.931.411-1.287 0a1.177 1.177 0 0 1 0-1.493zm-9.656 11.19c.356-.413.932-.413 1.287 0 .356.41.356 1.078 0 1.49-.355.413-.931.413-1.287 0a1.175 1.175 0 0 1 0-1.49zm-9.657 11.188c.356-.413.932-.413 1.288 0 .356.412.356 1.08 0 1.491-.356.413-.932.413-1.288 0a1.175 1.175 0 0 1 0-1.491zm-9.656 11.188c.356-.412.931-.412 1.287 0 .356.412.356 1.08 0 1.492-.356.412-.93.412-1.287 0a1.177 1.177 0 0 1 0-1.492zm-9.656 11.189c.356-.413.931-.413 1.287 0 .356.411.356 1.079 0 1.491-.356.413-.931.413-1.287 0a1.175 1.175 0 0 1 0-1.491zm-9.656 11.188c.355-.412.93-.412 1.287 0 .356.413.356 1.08 0 1.492-.356.412-.932.412-1.287 0a1.175 1.175 0 0 1 0-1.492zm-9.657 11.189c.355-.413.932-.413 1.288 0 .356.412.356 1.08 0 1.491-.356.413-.933.413-1.288 0a1.175 1.175 0 0 1 0-1.491zm-9.657 11.188c.356-.411.931-.411 1.287 0 .356.412.356 1.08 0 1.493-.356.411-.93.411-1.287 0a1.177 1.177 0 0 1 0-1.493zm-9.656 11.189c.356-.413.931-.413 1.287 0 .356.412.356 1.079 0 1.491-.356.413-.931.413-1.287 0a1.175 1.175 0 0 1 0-1.491zm-9.656 11.188c.356-.412.93-.412 1.287 0 .356.413.356 1.08 0 1.493-.356.411-.931.411-1.287 0a1.177 1.177 0 0 1 0-1.493zm-9.657 11.19c.356-.413.932-.413 1.288 0 .356.41.356 1.078 0 1.49-.356.413-.932.413-1.288 0a1.175 1.175 0 0 1 0-1.49zm-9.656 11.187c.356-.412.931-.412 1.287 0 .356.413.356 1.08 0 1.492-.356.413-.931.413-1.287 0a1.175 1.175 0 0 1 0-1.492zM125.8 380.72c.356-.413.932-.413 1.288 0 .355.412.355 1.08 0 1.492-.356.412-.932.412-1.288 0a1.175 1.175 0 0 1 0-1.492zm-9.657 11.188a.827.827 0 0 1 1.289 0c.355.413.355 1.08 0 1.493a.827.827 0 0 1-1.289 0 1.179 1.179 0 0 1 0-1.493zM338.242 156.95c.356-.412.931-.412 1.287 0 .356.413.356 1.08 0 1.492-.356.412-.931.412-1.287 0a1.175 1.175 0 0 1 0-1.492zm9.656 11.188c.356-.412.932-.412 1.287 0 .356.413.356 1.08 0 1.492-.355.412-.931.412-1.287 0a1.175 1.175 0 0 1 0-1.492zm-19.313 0c.356-.412.932-.412 1.288 0 .356.413.356 1.08 0 1.492-.356.412-.932.412-1.288 0a1.175 1.175 0 0 1 0-1.492zm-9.656 11.189c.356-.412.931-.412 1.287 0 .356.412.356 1.08 0 1.492-.356.412-.931.412-1.287 0a1.177 1.177 0 0 1 0-1.492zm-9.657 11.189c.356-.413.932-.413 1.288 0 .355.411.355 1.079 0 1.491-.356.413-.932.413-1.288 0a1.177 1.177 0 0 1 0-1.491zm-9.656 11.188c.356-.412.932-.412 1.288 0 .356.413.356 1.08 0 1.492-.356.412-.932.412-1.288 0a1.177 1.177 0 0 1 0-1.492zm-9.657 11.189c.356-.412.932-.412 1.288 0s.356 1.08 0 1.492c-.356.412-.932.412-1.288 0a1.177 1.177 0 0 1 0-1.492zm-9.656 11.188c.356-.412.931-.412 1.287 0 .356.412.356 1.08 0 1.492-.356.412-.931.412-1.287 0a1.175 1.175 0 0 1 0-1.492zm-9.656 11.189c.356-.413.931-.413 1.287 0 .356.412.356 1.079 0 1.491-.356.413-.931.413-1.287 0a1.175 1.175 0 0 1 0-1.491zm-9.657 11.188c.356-.412.932-.412 1.288 0 .356.413.356 1.08 0 1.493-.356.411-.932.411-1.288 0a1.177 1.177 0 0 1 0-1.493zm-9.656 11.19c.356-.413.932-.413 1.288 0 .355.41.355 1.078 0 1.49-.356.413-.932.413-1.288 0a1.175 1.175 0 0 1 0-1.49zm-9.657 11.188c.356-.413.932-.413 1.287 0 .356.412.356 1.08 0 1.491-.355.413-.931.413-1.287 0a1.175 1.175 0 0 1 0-1.491zm-9.656 11.188c.356-.412.932-.412 1.287 0 .356.412.356 1.08 0 1.492-.355.412-.931.412-1.287 0a1.177 1.177 0 0 1 0-1.492zm-9.657 11.189c.356-.413.932-.413 1.288 0 .356.411.356 1.079 0 1.491-.356.413-.932.413-1.288 0a1.175 1.175 0 0 1 0-1.491zm-9.656 11.188c.356-.412.931-.412 1.287 0 .356.413.356 1.08 0 1.492-.356.412-.93.412-1.287 0a1.175 1.175 0 0 1 0-1.492zm-9.656 11.189c.356-.413.931-.413 1.287 0 .356.412.356 1.08 0 1.491-.356.413-.931.413-1.287 0a1.175 1.175 0 0 1 0-1.491zm-9.656 11.188c.355-.411.93-.411 1.287 0 .356.412.356 1.08 0 1.493-.356.411-.932.411-1.287 0a1.177 1.177 0 0 1 0-1.493zm-9.657 11.189c.355-.413.932-.413 1.288 0 .356.412.356 1.079 0 1.491-.356.413-.933.413-1.288 0a1.175 1.175 0 0 1 0-1.491zm-9.657 11.188c.356-.412.931-.412 1.287 0 .356.413.356 1.08 0 1.493-.356.411-.93.411-1.287 0a1.177 1.177 0 0 1 0-1.493zm-9.656 11.19c.356-.413.931-.413 1.287 0 .356.41.356 1.078 0 1.49-.356.413-.931.413-1.287 0a1.175 1.175 0 0 1 0-1.49zm-9.656 11.187c.356-.412.93-.412 1.287 0 .356.413.356 1.08 0 1.492-.356.413-.931.413-1.287 0a1.175 1.175 0 0 1 0-1.492zm-9.657 11.189c.356-.413.932-.413 1.288 0 .356.412.356 1.08 0 1.492-.356.412-.932.412-1.288 0a1.175 1.175 0 0 1 0-1.492zm-9.656 11.188c.356-.411.931-.411 1.287 0 .356.413.356 1.08 0 1.493-.356.411-.931.411-1.287 0a1.177 1.177 0 0 1 0-1.493zm-9.657 11.19c.356-.413.932-.413 1.288 0 .355.41.355 1.078 0 1.49-.356.413-.932.413-1.288 0a1.175 1.175 0 0 1 0-1.49zm212.442-223.772c.356-.412.931-.412 1.287 0 .356.412.356 1.08 0 1.492-.356.412-.931.412-1.287 0a1.177 1.177 0 0 1 0-1.492zm-9.657 11.189c.356-.413.932-.413 1.288 0 .356.411.356 1.079 0 1.491-.356.413-.932.413-1.288 0a1.175 1.175 0 0 1 0-1.491zm-9.656 11.188c.356-.412.931-.412 1.287 0 .356.413.356 1.08 0 1.492-.356.412-.931.412-1.287 0a1.175 1.175 0 0 1 0-1.492zm-9.657 11.189a.827.827 0 0 1 1.288 0c.355.412.355 1.08 0 1.492a.827.827 0 0 1-1.288 0 1.179 1.179 0 0 1 0-1.492zm-9.656 11.188c.356-.412.932-.412 1.288 0s.356 1.08 0 1.492c-.356.412-.932.412-1.288 0a1.177 1.177 0 0 1 0-1.492zm-9.657 11.189c.356-.413.932-.413 1.288 0 .356.412.356 1.079 0 1.491-.356.413-.932.413-1.288 0a1.175 1.175 0 0 1 0-1.491zm-9.656 11.188c.356-.412.931-.412 1.287 0 .356.413.356 1.08 0 1.493-.356.411-.931.411-1.287 0a1.177 1.177 0 0 1 0-1.493zm-9.656 11.19c.356-.413.931-.413 1.287 0 .356.41.356 1.078 0 1.49-.356.413-.931.413-1.287 0a1.175 1.175 0 0 1 0-1.49zm-9.657 11.188c.356-.413.932-.413 1.288 0 .356.412.356 1.08 0 1.491-.356.413-.932.413-1.288 0a1.175 1.175 0 0 1 0-1.491zm-9.656 11.188c.356-.412.932-.412 1.288 0 .355.412.355 1.08 0 1.492-.356.412-.932.412-1.288 0a1.177 1.177 0 0 1 0-1.492zm-9.657 11.189c.356-.413.932-.413 1.287 0 .356.411.356 1.079 0 1.491-.355.413-.931.413-1.287 0a1.175 1.175 0 0 1 0-1.491zm-9.656 11.188c.356-.412.932-.412 1.287 0 .356.413.356 1.08 0 1.492-.355.412-.931.412-1.287 0a1.175 1.175 0 0 1 0-1.492zm-9.657 11.189c.356-.413.932-.413 1.288 0 .356.412.356 1.08 0 1.491-.356.413-.932.413-1.288 0a1.175 1.175 0 0 1 0-1.491zm-9.656 11.188c.356-.411.931-.411 1.287 0 .356.412.356 1.08 0 1.493-.356.411-.93.411-1.287 0a1.177 1.177 0 0 1 0-1.493zm-9.656 11.189c.356-.413.931-.413 1.287 0 .356.412.356 1.079 0 1.491-.356.413-.931.413-1.287 0a1.175 1.175 0 0 1 0-1.491zm-9.656 11.188c.355-.412.93-.412 1.287 0 .356.413.356 1.08 0 1.493-.356.411-.932.411-1.287 0a1.177 1.177 0 0 1 0-1.493zm-9.657 11.19c.355-.413.932-.413 1.288 0 .356.41.356 1.078 0 1.49-.356.413-.933.413-1.288 0a1.175 1.175 0 0 1 0-1.49zm-9.657 11.187c.356-.412.931-.412 1.287 0 .356.413.356 1.08 0 1.492-.356.413-.93.413-1.287 0a1.175 1.175 0 0 1 0-1.492zm-9.656 11.189c.356-.413.931-.413 1.287 0 .356.412.356 1.08 0 1.492-.356.412-.931.412-1.287 0a1.175 1.175 0 0 1 0-1.492zm-9.656 11.188c.356-.411.93-.411 1.287 0 .356.413.356 1.08 0 1.493-.356.411-.931.411-1.287 0a1.177 1.177 0 0 1 0-1.493zm-9.657 11.19c.356-.413.932-.413 1.288 0 .356.41.356 1.078 0 1.49-.356.413-.932.413-1.288 0a1.175 1.175 0 0 1 0-1.49zm212.441-223.772c.356-.412.931-.412 1.287 0 .356.412.356 1.08 0 1.492-.356.412-.93.412-1.287 0a1.177 1.177 0 0 1 0-1.492zm9.657 11.189c.355-.413.932-.413 1.288 0 .356.411.356 1.079 0 1.491-.356.413-.933.413-1.288 0a1.175 1.175 0 0 1 0-1.491zm-19.313 0c.356-.413.932-.413 1.287 0 .356.411.356 1.079 0 1.491-.355.413-.931.413-1.287 0a1.175 1.175 0 0 1 0-1.491zm-9.656 11.188c.356-.412.931-.412 1.287 0 .356.413.356 1.08 0 1.492-.356.412-.931.412-1.287 0a1.175 1.175 0 0 1 0-1.492zm-9.657 11.189c.356-.412.932-.412 1.288 0s.356 1.08 0 1.492c-.356.412-.932.412-1.288 0a1.177 1.177 0 0 1 0-1.492zm-9.656 11.188c.356-.412.931-.412 1.287 0 .356.412.356 1.08 0 1.492-.356.412-.931.412-1.287 0a1.175 1.175 0 0 1 0-1.492zm-9.657 11.189c.356-.413.932-.413 1.288 0 .355.412.355 1.079 0 1.491-.356.413-.932.413-1.288 0a1.177 1.177 0 0 1 0-1.491zm-9.656 11.188c.356-.412.932-.412 1.288 0 .356.413.356 1.08 0 1.493a.827.827 0 0 1-1.288 0 1.179 1.179 0 0 1 0-1.493zm-9.657 11.19c.356-.413.932-.413 1.288 0 .356.41.356 1.078 0 1.49-.356.413-.932.413-1.288 0a1.175 1.175 0 0 1 0-1.49zm-9.656 11.188c.356-.413.931-.413 1.287 0 .356.412.356 1.08 0 1.491-.356.413-.931.413-1.287 0a1.175 1.175 0 0 1 0-1.491zm-9.656 11.188c.356-.412.931-.412 1.287 0 .356.412.356 1.08 0 1.492-.356.412-.931.412-1.287 0a1.177 1.177 0 0 1 0-1.492zm-9.657 11.189c.356-.413.932-.413 1.288 0 .356.411.356 1.079 0 1.491-.356.413-.932.413-1.288 0a1.175 1.175 0 0 1 0-1.491zm-9.656 11.188c.356-.412.932-.412 1.288 0 .355.413.355 1.08 0 1.492-.356.412-.932.412-1.288 0a1.175 1.175 0 0 1 0-1.492zm-9.657 11.189c.356-.413.932-.413 1.287 0 .356.412.356 1.08 0 1.491-.355.413-.931.413-1.287 0a1.175 1.175 0 0 1 0-1.491zm-9.656 11.188c.356-.411.932-.411 1.287 0 .356.412.356 1.08 0 1.493-.355.411-.931.411-1.287 0a1.177 1.177 0 0 1 0-1.493zm-9.657 11.189c.356-.413.932-.413 1.288 0 .356.412.356 1.079 0 1.491-.356.413-.932.413-1.288 0a1.175 1.175 0 0 1 0-1.491zm-9.656 11.188c.356-.412.931-.412 1.287 0 .356.413.356 1.08 0 1.493-.356.411-.93.411-1.287 0a1.177 1.177 0 0 1 0-1.493zm-9.656 11.19c.356-.413.931-.413 1.287 0 .356.41.356 1.078 0 1.49-.356.413-.931.413-1.287 0a1.175 1.175 0 0 1 0-1.49zm-9.656 11.187c.355-.412.93-.412 1.287 0 .356.413.356 1.08 0 1.492-.356.413-.932.413-1.287 0a1.175 1.175 0 0 1 0-1.492zm-9.657 11.189c.355-.413.932-.413 1.288 0 .356.412.356 1.08 0 1.492-.356.412-.933.412-1.288 0a1.175 1.175 0 0 1 0-1.492zm-9.657 11.188c.356-.411.931-.411 1.287 0 .356.413.356 1.08 0 1.493-.356.411-.93.411-1.287 0a1.177 1.177 0 0 1 0-1.493zm-9.656 11.19c.356-.413.931-.413 1.287 0 .356.41.356 1.078 0 1.49-.356.413-.931.413-1.287 0a1.175 1.175 0 0 1 0-1.49zm193.128-201.395c.356-.412.931-.412 1.287 0 .356.413.356 1.08 0 1.492-.356.412-.93.412-1.287 0a1.175 1.175 0 0 1 0-1.492zm-9.656 11.189c.356-.412.932-.412 1.287 0 .356.412.356 1.08 0 1.492-.355.412-.931.412-1.287 0a1.177 1.177 0 0 1 0-1.492zm-9.656 11.188c.356-.412.931-.412 1.287 0 .356.412.356 1.08 0 1.492-.356.412-.931.412-1.287 0a1.175 1.175 0 0 1 0-1.492zm-9.657 11.189c.356-.413.932-.413 1.288 0 .356.412.356 1.079 0 1.491-.356.413-.932.413-1.288 0a1.175 1.175 0 0 1 0-1.491zm-9.656 11.188c.356-.412.931-.412 1.287 0 .356.413.356 1.08 0 1.493-.356.411-.931.411-1.287 0a1.177 1.177 0 0 1 0-1.493zm-9.657 11.19c.356-.413.932-.413 1.288 0 .355.41.355 1.078 0 1.49-.356.413-.932.413-1.288 0a1.177 1.177 0 0 1 0-1.49zm-9.656 11.188c.356-.413.932-.413 1.288 0 .356.412.356 1.08 0 1.491-.356.413-.932.413-1.288 0a1.177 1.177 0 0 1 0-1.491zm-9.657 11.188c.356-.412.932-.412 1.288 0s.356 1.08 0 1.492c-.356.412-.932.412-1.288 0a1.177 1.177 0 0 1 0-1.492zm-9.656 11.189c.356-.413.931-.413 1.287 0 .356.411.356 1.079 0 1.491-.356.413-.931.413-1.287 0a1.175 1.175 0 0 1 0-1.491zm-9.656 11.188c.356-.412.931-.412 1.287 0 .356.413.356 1.08 0 1.492-.356.412-.931.412-1.287 0a1.175 1.175 0 0 1 0-1.492zm-9.657 11.189c.356-.413.932-.413 1.288 0 .356.412.356 1.08 0 1.491-.356.413-.932.413-1.288 0a1.175 1.175 0 0 1 0-1.491zm-9.656 11.188c.356-.411.932-.411 1.288 0 .355.412.355 1.08 0 1.493-.356.411-.932.411-1.288 0a1.177 1.177 0 0 1 0-1.493zm-9.657 11.189c.356-.413.932-.413 1.287 0 .356.412.356 1.079 0 1.491-.355.413-.931.413-1.287 0a1.175 1.175 0 0 1 0-1.491zm-9.656 11.188c.356-.412.932-.412 1.287 0 .356.413.356 1.08 0 1.493-.355.411-.931.411-1.287 0a1.177 1.177 0 0 1 0-1.493zm-9.657 11.19c.356-.413.932-.413 1.288 0 .356.41.356 1.078 0 1.49-.356.413-.932.413-1.288 0a1.175 1.175 0 0 1 0-1.49zm-9.656 11.187c.356-.412.931-.412 1.287 0 .356.413.356 1.08 0 1.492-.356.413-.93.413-1.287 0a1.175 1.175 0 0 1 0-1.492zm-9.656 11.189c.356-.413.931-.413 1.287 0 .356.412.356 1.08 0 1.492-.356.412-.931.412-1.287 0a1.175 1.175 0 0 1 0-1.492zm-9.656 11.188c.355-.411.93-.411 1.287 0 .356.413.356 1.08 0 1.493-.356.411-.932.411-1.287 0a1.177 1.177 0 0 1 0-1.493zm-9.657 11.19c.355-.413.932-.413 1.288 0 .356.41.356 1.078 0 1.49-.356.413-.933.413-1.288 0a1.175 1.175 0 0 1 0-1.49zm-9.657 11.188c.356-.413.931-.413 1.287 0 .356.412.356 1.08 0 1.491-.356.413-.93.413-1.287 0a1.175 1.175 0 0 1 0-1.491zm-9.656 11.188c.356-.411.931-.411 1.287 0 .356.412.356 1.08 0 1.493-.356.411-.931.411-1.287 0a1.177 1.177 0 0 1 0-1.493zm212.442-223.77c.355-.413.931-.413 1.287 0 .356.412.356 1.08 0 1.49-.356.413-.932.413-1.287 0a1.175 1.175 0 0 1 0-1.49zm9.656 11.188c.356-.412.931-.412 1.287 0 .356.412.356 1.08 0 1.492-.356.412-.931.412-1.287 0a1.177 1.177 0 0 1 0-1.492zm-19.313 0c.355-.412.932-.412 1.288 0s.356 1.08 0 1.492c-.356.412-.933.412-1.288 0a1.177 1.177 0 0 1 0-1.492zm-9.657 11.188c.356-.412.931-.412 1.287 0 .356.412.356 1.08 0 1.492-.356.412-.93.412-1.287 0a1.175 1.175 0 0 1 0-1.492zm-9.656 11.189c.356-.413.932-.413 1.287 0 .356.412.356 1.079 0 1.491-.355.413-.931.413-1.287 0a1.175 1.175 0 0 1 0-1.491zm-9.656 11.188c.356-.412.931-.412 1.287 0 .356.413.356 1.08 0 1.493-.356.411-.931.411-1.287 0a1.177 1.177 0 0 1 0-1.493zm-9.657 11.19c.356-.413.932-.413 1.288 0 .356.41.356 1.078 0 1.49-.356.413-.932.413-1.288 0a1.175 1.175 0 0 1 0-1.49zm-9.656 11.188c.356-.413.931-.413 1.287 0 .356.412.356 1.08 0 1.491-.356.413-.931.413-1.287 0a1.175 1.175 0 0 1 0-1.491zm-9.657 11.188a.827.827 0 0 1 1.288 0c.355.412.355 1.08 0 1.492a.827.827 0 0 1-1.288 0 1.179 1.179 0 0 1 0-1.492zm-9.656 11.189c.356-.413.932-.413 1.288 0 .356.411.356 1.079 0 1.491-.356.413-.932.413-1.288 0a1.177 1.177 0 0 1 0-1.491zm-9.657 11.188c.356-.412.932-.412 1.288 0 .356.413.356 1.08 0 1.492-.356.412-.932.412-1.288 0a1.175 1.175 0 0 1 0-1.492zm-9.656 11.189c.356-.413.931-.413 1.287 0 .356.412.356 1.08 0 1.491-.356.413-.931.413-1.287 0a1.175 1.175 0 0 1 0-1.491zm-9.656 11.188c.356-.411.931-.411 1.287 0 .356.412.356 1.08 0 1.493-.356.411-.931.411-1.287 0a1.177 1.177 0 0 1 0-1.493zm-9.657 11.189c.356-.413.932-.413 1.288 0 .356.412.356 1.079 0 1.491-.356.413-.932.413-1.288 0a1.175 1.175 0 0 1 0-1.491zm-9.656 11.188c.356-.412.932-.412 1.288 0 .355.413.355 1.08 0 1.493-.356.411-.932.411-1.288 0a1.177 1.177 0 0 1 0-1.493zm-9.657 11.19c.356-.413.932-.413 1.287 0 .356.41.356 1.078 0 1.49-.355.413-.931.413-1.287 0a1.175 1.175 0 0 1 0-1.49zm-9.656 11.187c.356-.412.932-.412 1.287 0 .356.413.356 1.08 0 1.492-.355.413-.931.413-1.287 0a1.175 1.175 0 0 1 0-1.492zm-9.657 11.189c.356-.413.932-.413 1.288 0 .356.412.356 1.08 0 1.492-.356.412-.932.412-1.288 0a1.175 1.175 0 0 1 0-1.492zm-9.656 11.188c.356-.411.931-.411 1.287 0 .356.413.356 1.08 0 1.493-.356.411-.93.411-1.287 0a1.177 1.177 0 0 1 0-1.493zm-9.656 11.19c.356-.413.931-.413 1.287 0 .356.41.356 1.078 0 1.49-.356.413-.931.413-1.287 0a1.175 1.175 0 0 1 0-1.49zm-9.656 11.188c.355-.413.93-.413 1.287 0 .356.412.356 1.08 0 1.491-.356.413-.932.413-1.287 0a1.175 1.175 0 0 1 0-1.491zm-9.657 11.188c.355-.411.932-.411 1.288 0 .356.412.356 1.08 0 1.493-.356.411-.933.411-1.288 0a1.177 1.177 0 0 1 0-1.493zm-9.657 11.189c.356-.413.931-.413 1.287 0 .356.412.356 1.08 0 1.492-.356.412-.93.412-1.287 0a1.175 1.175 0 0 1 0-1.492zm-9.656 11.188c.356-.412.931-.412 1.287 0 .356.413.356 1.08 0 1.492-.356.412-.931.412-1.287 0a1.175 1.175 0 0 1 0-1.492zm212.442-223.77c.355-.413.931-.413 1.287 0 .356.41.356 1.079 0 1.491-.356.412-.932.412-1.287 0a1.175 1.175 0 0 1 0-1.492zm-9.657 11.188c.355-.413.932-.413 1.288 0 .356.412.356 1.079 0 1.491-.356.413-.933.413-1.288 0a1.175 1.175 0 0 1 0-1.491zm-9.657 11.188c.356-.412.931-.412 1.287 0 .356.413.356 1.08 0 1.493-.356.411-.93.411-1.287 0a1.177 1.177 0 0 1 0-1.493zm-9.656 11.19c.356-.413.932-.413 1.287 0 .356.41.356 1.078 0 1.49-.355.413-.931.413-1.287 0a1.175 1.175 0 0 1 0-1.49zm-9.656 11.188c.356-.413.931-.413 1.287 0 .356.412.356 1.08 0 1.491-.356.413-.931.413-1.287 0a1.175 1.175 0 0 1 0-1.491zm-9.657 11.188c.356-.412.932-.412 1.288 0s.356 1.08 0 1.492c-.356.412-.932.412-1.288 0a1.177 1.177 0 0 1 0-1.492zm-9.656 11.189c.356-.413.931-.413 1.287 0 .356.411.356 1.079 0 1.491-.356.413-.931.413-1.287 0a1.175 1.175 0 0 1 0-1.491zm-9.657 11.188c.356-.412.932-.412 1.288 0 .355.413.355 1.08 0 1.492-.356.412-.932.412-1.288 0a1.177 1.177 0 0 1 0-1.492zm-9.656 11.189c.356-.413.932-.413 1.288 0 .356.412.356 1.08 0 1.491-.356.413-.932.413-1.288 0a1.177 1.177 0 0 1 0-1.491zm-9.657 11.188c.356-.411.932-.411 1.288 0 .356.412.356 1.08 0 1.493-.356.411-.932.411-1.288 0a1.177 1.177 0 0 1 0-1.493zm-9.656 11.189c.356-.413.931-.413 1.287 0 .356.412.356 1.079 0 1.491-.356.413-.931.413-1.287 0a1.175 1.175 0 0 1 0-1.491zm-9.656 11.188c.356-.412.931-.412 1.287 0 .356.413.356 1.08 0 1.493-.356.411-.931.411-1.287 0a1.177 1.177 0 0 1 0-1.493zm-9.657 11.19c.356-.413.932-.413 1.288 0 .356.41.356 1.078 0 1.49-.356.413-.932.413-1.288 0a1.175 1.175 0 0 1 0-1.49zm-9.656 11.187c.356-.412.932-.412 1.288 0 .355.413.355 1.08 0 1.492-.356.413-.932.413-1.288 0a1.175 1.175 0 0 1 0-1.492zm-9.657 11.189c.356-.413.932-.413 1.287 0 .356.412.356 1.08 0 1.492-.355.412-.931.412-1.287 0a1.175 1.175 0 0 1 0-1.492zm-9.656 11.188c.356-.411.932-.411 1.287 0 .356.413.356 1.08 0 1.493-.355.411-.931.411-1.287 0a1.177 1.177 0 0 1 0-1.493zm-9.657 11.19c.356-.413.932-.413 1.288 0 .356.41.356 1.078 0 1.49-.356.413-.932.413-1.288 0a1.175 1.175 0 0 1 0-1.49zm-9.656 11.188c.356-.413.931-.413 1.287 0 .356.412.356 1.08 0 1.491-.356.413-.93.413-1.287 0a1.175 1.175 0 0 1 0-1.491zm-9.656 11.188c.356-.411.931-.411 1.287 0 .356.412.356 1.08 0 1.493-.356.411-.931.411-1.287 0a1.177 1.177 0 0 1 0-1.493zm-9.656 11.189c.355-.413.93-.413 1.287 0 .356.412.356 1.08 0 1.492-.356.412-.932.412-1.287 0a1.175 1.175 0 0 1 0-1.492zm-9.657 11.188c.355-.412.932-.412 1.288 0 .356.413.356 1.08 0 1.492-.356.412-.933.412-1.288 0a1.175 1.175 0 0 1 0-1.492zm-9.657 11.189c.356-.412.931-.412 1.287 0 .356.412.356 1.08 0 1.492-.356.412-.93.412-1.287 0a1.177 1.177 0 0 1 0-1.492zM396.18 224.08c.356-.412.932-.412 1.288 0 .355.412.355 1.08 0 1.492-.356.412-.932.412-1.288 0a1.175 1.175 0 0 1 0-1.492zm9.657 11.189c.356-.413.93-.413 1.287 0 .356.412.356 1.079 0 1.491-.356.413-.931.413-1.287 0a1.175 1.175 0 0 1 0-1.491zm-19.313 0c.356-.413.931-.413 1.287 0 .356.412.356 1.079 0 1.491-.356.413-.931.413-1.287 0a1.175 1.175 0 0 1 0-1.491zm-9.656 11.188c.355-.412.931-.412 1.287 0 .356.413.356 1.08 0 1.493-.356.411-.932.411-1.287 0a1.177 1.177 0 0 1 0-1.493zm-9.657 11.19c.355-.413.932-.413 1.288 0 .356.41.356 1.078 0 1.49-.356.413-.933.413-1.288 0a1.175 1.175 0 0 1 0-1.49zm-9.657 11.188c.356-.413.931-.413 1.287 0 .356.412.356 1.08 0 1.491-.356.413-.93.413-1.287 0a1.175 1.175 0 0 1 0-1.491zm-9.656 11.188c.356-.412.932-.412 1.287 0 .356.412.356 1.08 0 1.492-.355.412-.931.412-1.287 0a1.177 1.177 0 0 1 0-1.492zm-9.656 11.189c.356-.413.931-.413 1.287 0 .356.411.356 1.079 0 1.491-.356.413-.931.413-1.287 0a1.175 1.175 0 0 1 0-1.491zm-9.657 11.188c.356-.412.932-.412 1.288 0 .356.413.356 1.08 0 1.492-.356.412-.932.412-1.288 0a1.175 1.175 0 0 1 0-1.492zm-9.656 11.189c.356-.413.931-.413 1.287 0 .356.412.356 1.08 0 1.491-.356.413-.931.413-1.287 0a1.175 1.175 0 0 1 0-1.491zm-9.657 11.188a.827.827 0 0 1 1.288 0c.355.412.355 1.08 0 1.493a.827.827 0 0 1-1.288 0 1.179 1.179 0 0 1 0-1.493zm-9.656 11.189c.356-.413.932-.413 1.288 0 .356.412.356 1.079 0 1.491-.356.413-.932.413-1.288 0a1.177 1.177 0 0 1 0-1.491zm-9.657 11.188c.356-.412.932-.412 1.288 0 .356.413.356 1.08 0 1.493-.356.411-.932.411-1.288 0a1.177 1.177 0 0 1 0-1.493zm-9.656 11.19c.356-.413.931-.413 1.287 0 .356.41.356 1.078 0 1.49-.356.413-.931.413-1.287 0a1.175 1.175 0 0 1 0-1.49zm-9.656 11.187c.356-.412.931-.412 1.287 0 .356.413.356 1.08 0 1.492-.356.413-.931.413-1.287 0a1.175 1.175 0 0 1 0-1.492zm-9.657 11.189c.356-.413.932-.413 1.288 0 .356.412.356 1.08 0 1.492-.356.412-.932.412-1.288 0a1.175 1.175 0 0 1 0-1.492zm-9.656 11.188c.356-.411.932-.411 1.288 0 .355.413.355 1.08 0 1.493-.356.411-.932.411-1.288 0a1.177 1.177 0 0 1 0-1.493zm-9.657 11.19c.356-.413.932-.413 1.287 0 .356.41.356 1.078 0 1.49-.355.413-.931.413-1.287 0a1.175 1.175 0 0 1 0-1.49zm-9.656 11.188c.356-.413.932-.413 1.287 0 .356.412.356 1.08 0 1.491-.355.413-.931.413-1.287 0a1.175 1.175 0 0 1 0-1.491zm-9.657 11.188c.356-.411.932-.411 1.288 0 .356.412.356 1.08 0 1.493-.356.411-.932.411-1.288 0a1.177 1.177 0 0 1 0-1.493zm-9.656 11.189c.356-.413.931-.413 1.287 0 .356.412.356 1.08 0 1.492-.356.412-.93.412-1.287 0a1.175 1.175 0 0 1 0-1.492zm-9.656 11.188c.356-.412.931-.412 1.287 0 .356.413.356 1.08 0 1.492-.356.412-.931.412-1.287 0a1.175 1.175 0 0 1 0-1.492zm-9.656 11.189c.355-.412.93-.412 1.287 0 .356.412.356 1.08 0 1.492-.356.412-.932.412-1.287 0a1.177 1.177 0 0 1 0-1.492zm-9.657 11.189c.355-.413.932-.413 1.288 0 .356.411.356 1.079 0 1.491-.356.413-.933.413-1.288 0a1.175 1.175 0 0 1 0-1.491zM396.18 246.457c.356-.412.932-.412 1.288 0 .355.413.355 1.08 0 1.493-.356.411-.932.411-1.288 0a1.177 1.177 0 0 1 0-1.493zm-9.656 11.19c.356-.413.931-.413 1.287 0 .356.41.356 1.078 0 1.49-.356.413-.931.413-1.287 0a1.175 1.175 0 0 1 0-1.49zm-9.656 11.188c.355-.413.931-.413 1.287 0 .356.412.356 1.08 0 1.491-.356.413-.932.413-1.287 0a1.175 1.175 0 0 1 0-1.491zm-9.657 11.188c.355-.412.932-.412 1.288 0s.356 1.08 0 1.492c-.356.412-.933.412-1.288 0a1.177 1.177 0 0 1 0-1.492zm-9.657 11.189c.356-.413.931-.413 1.287 0 .356.411.356 1.079 0 1.491-.356.413-.93.413-1.287 0a1.175 1.175 0 0 1 0-1.491zm-9.656 11.188c.356-.412.932-.412 1.287 0 .356.413.356 1.08 0 1.492-.355.412-.931.412-1.287 0a1.175 1.175 0 0 1 0-1.492zm-9.656 11.189c.356-.413.931-.413 1.287 0 .356.412.356 1.08 0 1.491-.356.413-.931.413-1.287 0a1.175 1.175 0 0 1 0-1.491zm-9.657 11.188c.356-.411.932-.411 1.288 0 .356.412.356 1.08 0 1.493-.356.411-.932.411-1.288 0a1.177 1.177 0 0 1 0-1.493zm-9.656 11.189c.356-.413.931-.413 1.287 0 .356.412.356 1.079 0 1.491-.356.413-.931.413-1.287 0a1.175 1.175 0 0 1 0-1.491zm-9.657 11.188c.356-.412.932-.412 1.288 0 .355.413.355 1.08 0 1.493a.827.827 0 0 1-1.288 0 1.179 1.179 0 0 1 0-1.493zm-9.656 11.19c.356-.413.932-.413 1.288 0 .356.41.356 1.078 0 1.49-.356.413-.932.413-1.288 0a1.177 1.177 0 0 1 0-1.49zm-9.657 11.187c.356-.412.932-.412 1.288 0 .356.413.356 1.08 0 1.492-.356.413-.932.413-1.288 0a1.175 1.175 0 0 1 0-1.492zm-9.656 11.189c.356-.413.931-.413 1.287 0 .356.412.356 1.08 0 1.492-.356.412-.931.412-1.287 0a1.175 1.175 0 0 1 0-1.492zm-9.656 11.188c.356-.411.931-.411 1.287 0 .356.413.356 1.08 0 1.493-.356.411-.931.411-1.287 0a1.177 1.177 0 0 1 0-1.493zm-9.657 11.19c.356-.413.932-.413 1.288 0 .356.41.356 1.078 0 1.49-.356.413-.932.413-1.288 0a1.175 1.175 0 0 1 0-1.49zm-9.656 11.188c.356-.413.932-.413 1.288 0 .355.412.355 1.08 0 1.491-.356.413-.932.413-1.288 0a1.175 1.175 0 0 1 0-1.491zm-9.657 11.188c.356-.411.932-.411 1.287 0 .356.412.356 1.08 0 1.493-.355.411-.931.411-1.287 0a1.177 1.177 0 0 1 0-1.493zm-9.656 11.189c.356-.413.932-.413 1.287 0 .356.412.356 1.08 0 1.492-.355.412-.931.412-1.287 0a1.175 1.175 0 0 1 0-1.492zm-9.657 11.188c.356-.412.932-.412 1.288 0 .356.413.356 1.08 0 1.492-.356.412-.932.412-1.288 0a1.175 1.175 0 0 1 0-1.492zm-9.656 11.189c.356-.412.931-.412 1.287 0 .356.412.356 1.08 0 1.492-.356.412-.93.412-1.287 0a1.177 1.177 0 0 1 0-1.492zm-9.656 11.189c.356-.413.931-.413 1.287 0 .356.411.356 1.079 0 1.491-.356.413-.931.413-1.287 0a1.175 1.175 0 0 1 0-1.491zm-9.656 11.188c.355-.412.93-.412 1.287 0 .356.413.356 1.08 0 1.492-.356.412-.932.412-1.287 0a1.175 1.175 0 0 1 0-1.492zm222.097-234.96c.356-.412.932-.412 1.288 0 .355.413.355 1.08 0 1.493a.827.827 0 0 1-1.288 0 1.177 1.177 0 0 1 0-1.493zm9.656 11.19c.356-.413.932-.413 1.288 0 .355.41.355 1.078 0 1.49-.356.413-.932.413-1.288 0a1.175 1.175 0 0 1 0-1.49zm-19.312 0c.356-.413.93-.413 1.287 0 .356.41.356 1.078 0 1.49-.356.413-.931.413-1.287 0a1.175 1.175 0 0 1 0-1.49zm-9.657 11.188c.356-.413.932-.413 1.288 0 .355.412.355 1.08 0 1.491-.356.413-.932.413-1.288 0a1.175 1.175 0 0 1 0-1.491zm-9.656 11.188c.356-.412.931-.412 1.287 0 .356.412.356 1.08 0 1.492-.356.412-.931.412-1.287 0a1.177 1.177 0 0 1 0-1.492zm-9.656 11.189c.355-.413.931-.413 1.287 0 .356.411.356 1.079 0 1.491-.356.413-.932.413-1.287 0a1.175 1.175 0 0 1 0-1.491zM367.21 302.4c.355-.412.932-.412 1.288 0 .356.413.356 1.08 0 1.492-.356.412-.933.412-1.288 0a1.175 1.175 0 0 1 0-1.492zm-9.657 11.189c.356-.413.931-.413 1.287 0 .356.412.356 1.08 0 1.491-.356.413-.93.413-1.287 0a1.175 1.175 0 0 1 0-1.491zm-9.656 11.188c.356-.411.932-.411 1.287 0 .356.412.356 1.08 0 1.493-.355.411-.931.411-1.287 0a1.177 1.177 0 0 1 0-1.493zm-9.656 11.189c.356-.413.931-.413 1.287 0 .356.412.356 1.079 0 1.491-.356.413-.931.413-1.287 0a1.175 1.175 0 0 1 0-1.491zm-9.657 11.188c.356-.412.932-.412 1.288 0 .356.413.356 1.08 0 1.493-.356.411-.932.411-1.288 0a1.177 1.177 0 0 1 0-1.493zm-9.656 11.19c.356-.413.931-.413 1.287 0 .356.41.356 1.078 0 1.49-.356.413-.931.413-1.287 0a1.175 1.175 0 0 1 0-1.49zm-9.657 11.187c.356-.412.932-.412 1.288 0 .355.413.355 1.08 0 1.492-.356.413-.932.413-1.288 0a1.177 1.177 0 0 1 0-1.492zm-9.656 11.189c.356-.413.932-.413 1.288 0 .356.412.356 1.08 0 1.492-.356.412-.932.412-1.288 0a1.177 1.177 0 0 1 0-1.492zm-9.657 11.188c.356-.411.932-.411 1.288 0 .356.413.356 1.08 0 1.493-.356.411-.932.411-1.288 0a1.177 1.177 0 0 1 0-1.493zm-9.656 11.19c.356-.413.931-.413 1.287 0 .356.41.356 1.078 0 1.49-.356.413-.931.413-1.287 0a1.175 1.175 0 0 1 0-1.49zm-9.656 11.188c.356-.413.931-.413 1.287 0 .356.412.356 1.08 0 1.491-.356.413-.931.413-1.287 0a1.175 1.175 0 0 1 0-1.491zm-9.657 11.188c.356-.411.932-.411 1.288 0 .356.412.356 1.08 0 1.493-.356.411-.932.411-1.288 0a1.177 1.177 0 0 1 0-1.493zm-9.656 11.189c.356-.413.932-.413 1.288 0 .355.412.355 1.08 0 1.492-.356.412-.932.412-1.288 0a1.175 1.175 0 0 1 0-1.492zm-9.657 11.188c.356-.412.932-.412 1.287 0 .356.413.356 1.08 0 1.492-.355.412-.931.412-1.287 0a1.175 1.175 0 0 1 0-1.492zm-9.656 11.189c.356-.412.932-.412 1.287 0 .356.412.356 1.08 0 1.492-.355.412-.931.412-1.287 0a1.177 1.177 0 0 1 0-1.492zm-9.657 11.189c.356-.413.932-.413 1.288 0 .356.411.356 1.079 0 1.491-.356.413-.932.413-1.288 0a1.175 1.175 0 0 1 0-1.491zm-9.656 11.188c.356-.412.931-.412 1.287 0 .356.413.356 1.08 0 1.492-.356.412-.93.412-1.287 0a1.175 1.175 0 0 1 0-1.492zm-9.656 11.188c.356-.411.931-.411 1.287 0 .356.413.356 1.08 0 1.493-.356.411-.931.411-1.287 0a1.177 1.177 0 0 1 0-1.493zm212.44-223.77c.357-.413.933-.413 1.289 0 .355.412.355 1.08 0 1.491-.356.413-.932.413-1.288 0a1.175 1.175 0 0 1 0-1.491zm-9.655 11.188c.356-.412.93-.412 1.287 0 .356.412.356 1.08 0 1.492-.356.412-.931.412-1.287 0a1.177 1.177 0 0 1 0-1.492zm-9.657 11.189c.356-.413.932-.413 1.288 0 .355.411.355 1.079 0 1.491-.356.413-.932.413-1.288 0a1.175 1.175 0 0 1 0-1.491zm-9.656 11.188c.356-.412.931-.412 1.287 0 .356.413.356 1.08 0 1.492-.356.412-.931.412-1.287 0a1.175 1.175 0 0 1 0-1.492zm-9.656 11.189c.355-.413.931-.413 1.287 0 .356.412.356 1.08 0 1.491-.356.413-.932.413-1.287 0a1.175 1.175 0 0 1 0-1.491zm-9.657 11.188c.355-.411.932-.411 1.288 0 .356.412.356 1.08 0 1.493-.356.411-.933.411-1.288 0a1.177 1.177 0 0 1 0-1.493zm-9.657 11.189c.356-.413.931-.413 1.287 0 .356.412.356 1.079 0 1.491-.356.413-.93.413-1.287 0a1.175 1.175 0 0 1 0-1.491zm-9.656 11.188c.356-.412.932-.412 1.287 0 .356.413.356 1.08 0 1.493-.355.411-.931.411-1.287 0a1.177 1.177 0 0 1 0-1.493zm-9.656 11.19c.356-.413.931-.413 1.287 0 .356.41.356 1.078 0 1.49-.356.413-.931.413-1.287 0a1.175 1.175 0 0 1 0-1.49zm-9.657 11.187c.356-.412.932-.412 1.288 0 .356.413.356 1.08 0 1.492-.356.413-.932.413-1.288 0a1.175 1.175 0 0 1 0-1.492zm-9.656 11.189c.356-.413.931-.413 1.287 0 .356.412.356 1.08 0 1.492-.356.412-.931.412-1.287 0a1.175 1.175 0 0 1 0-1.492zm-9.657 11.188a.827.827 0 0 1 1.288 0c.355.413.355 1.08 0 1.493a.827.827 0 0 1-1.288 0 1.179 1.179 0 0 1 0-1.493zm-9.656 11.19c.356-.413.932-.413 1.288 0 .356.41.356 1.078 0 1.49-.356.413-.932.413-1.288 0a1.177 1.177 0 0 1 0-1.49zm-9.657 11.188c.356-.413.932-.413 1.288 0 .356.412.356 1.08 0 1.491-.356.413-.932.413-1.288 0a1.175 1.175 0 0 1 0-1.491zm-9.656 11.188c.356-.411.931-.411 1.287 0 .356.412.356 1.08 0 1.493-.356.411-.931.411-1.287 0a1.177 1.177 0 0 1 0-1.493zm-9.656 11.189c.356-.413.931-.413 1.287 0 .356.412.356 1.08 0 1.492-.356.412-.931.412-1.287 0a1.175 1.175 0 0 1 0-1.492zm-9.657 11.188c.356-.412.932-.412 1.288 0 .356.413.356 1.08 0 1.492-.356.412-.932.412-1.288 0a1.175 1.175 0 0 1 0-1.492zm-9.656 11.189c.356-.412.932-.412 1.288 0 .355.412.355 1.08 0 1.492-.356.412-.932.412-1.288 0a1.177 1.177 0 0 1 0-1.492zm-9.657 11.189c.356-.413.932-.413 1.287 0 .356.411.356 1.079 0 1.491-.355.413-.931.413-1.287 0a1.175 1.175 0 0 1 0-1.491zm-9.656 11.188c.356-.412.932-.412 1.287 0 .356.413.356 1.08 0 1.492-.355.412-.931.412-1.287 0a1.175 1.175 0 0 1 0-1.492zm-9.657 11.188c.356-.411.932-.411 1.288 0 .356.413.356 1.08 0 1.493-.356.411-.932.411-1.288 0a1.177 1.177 0 0 1 0-1.493zm-9.656 11.19c.356-.413.931-.413 1.287 0 .356.412.356 1.078 0 1.49-.356.413-.93.413-1.287 0a1.175 1.175 0 0 1 0-1.49zm223.386-233.469c-.356.413-.932.413-1.288 0a1.175 1.175 0 0 1 0-1.491c.356-.413.932-.413 1.288 0 .356.412.356 1.08 0 1.491zm-10.945 9.697a.827.827 0 0 1 1.288 0c.355.412.355 1.08 0 1.492a.827.827 0 0 1-1.288 0 1.177 1.177 0 0 1 0-1.492zm-9.656 11.189c.356-.413.932-.413 1.288 0 .355.411.355 1.079 0 1.491-.356.413-.932.413-1.288 0a1.175 1.175 0 0 1 0-1.491zm-9.656 11.188c.356-.412.93-.412 1.287 0 .356.413.356 1.08 0 1.492-.356.412-.931.412-1.287 0a1.175 1.175 0 0 1 0-1.492zm-9.657 11.189c.356-.413.932-.413 1.288 0 .355.412.355 1.08 0 1.491-.356.413-.932.413-1.288 0a1.175 1.175 0 0 1 0-1.491zm-9.656 11.188c.356-.411.931-.411 1.287 0 .356.412.356 1.08 0 1.493-.356.411-.931.411-1.287 0a1.177 1.177 0 0 1 0-1.493zm-9.656 11.189c.355-.413.931-.413 1.287 0 .356.412.356 1.079 0 1.491-.356.413-.932.413-1.287 0a1.175 1.175 0 0 1 0-1.491zm-9.657 11.188c.355-.412.932-.412 1.288 0 .356.413.356 1.08 0 1.493-.356.411-.933.411-1.288 0a1.177 1.177 0 0 1 0-1.493zm-9.657 11.19c.356-.413.931-.413 1.287 0 .356.41.356 1.078 0 1.49-.356.413-.93.413-1.287 0a1.175 1.175 0 0 1 0-1.49zm-9.656 11.187c.356-.412.932-.412 1.287 0 .356.413.356 1.08 0 1.492-.355.413-.931.413-1.287 0a1.175 1.175 0 0 1 0-1.492zm-9.656 11.189c.356-.413.931-.413 1.287 0 .356.412.356 1.08 0 1.492-.356.412-.931.412-1.287 0a1.175 1.175 0 0 1 0-1.492zm-9.657 11.188c.356-.411.932-.411 1.288 0 .356.413.356 1.08 0 1.493-.356.411-.932.411-1.288 0a1.177 1.177 0 0 1 0-1.493zm-9.656 11.19c.356-.413.931-.413 1.287 0 .356.41.356 1.078 0 1.49-.356.413-.931.413-1.287 0a1.175 1.175 0 0 1 0-1.49zm-9.657 11.188c.356-.413.932-.413 1.288 0 .355.412.355 1.08 0 1.491-.356.413-.932.413-1.288 0a1.177 1.177 0 0 1 0-1.491zm-9.656 11.188a.827.827 0 0 1 1.288 0c.356.412.356 1.08 0 1.493a.827.827 0 0 1-1.288 0 1.179 1.179 0 0 1 0-1.493zm-9.657 11.189c.356-.413.932-.413 1.288 0 .356.412.356 1.08 0 1.492-.356.412-.932.412-1.288 0a1.175 1.175 0 0 1 0-1.492zm-9.656 11.188c.356-.412.931-.412 1.287 0 .356.413.356 1.08 0 1.492-.356.412-.931.412-1.287 0a1.175 1.175 0 0 1 0-1.492zm-9.656 11.189c.356-.412.931-.412 1.287 0 .356.412.356 1.08 0 1.492-.356.412-.931.412-1.287 0a1.177 1.177 0 0 1 0-1.492zm-9.657 11.189c.356-.413.932-.413 1.288 0 .356.411.356 1.079 0 1.491-.356.413-.932.413-1.288 0a1.175 1.175 0 0 1 0-1.491zm-9.656 11.188c.356-.412.932-.412 1.288 0 .355.413.355 1.08 0 1.492-.356.412-.932.412-1.288 0a1.175 1.175 0 0 1 0-1.492zm-9.657 11.188c.356-.411.932-.411 1.287 0 .356.413.356 1.08 0 1.493-.355.411-.931.411-1.287 0a1.177 1.177 0 0 1 0-1.493zm-9.656 11.19c.356-.413.932-.413 1.287 0 .356.412.356 1.078 0 1.49-.355.413-.931.413-1.287 0a1.175 1.175 0 0 1 0-1.49zm-9.657 11.188c.356-.413.932-.413 1.288 0 .356.412.356 1.079 0 1.491-.356.413-.932.413-1.288 0a1.175 1.175 0 0 1 0-1.491zm212.442-223.771c.356-.413.932-.413 1.288 0 .356.411.356 1.079 0 1.491-.356.413-.932.413-1.288 0a1.175 1.175 0 0 1 0-1.491zM425.15 302.4c.356-.412.932-.412 1.288 0 .355.413.355 1.08 0 1.492-.356.412-.932.412-1.288 0a1.175 1.175 0 0 1 0-1.492zm-9.656 11.189c.356-.413.932-.413 1.288 0 .355.412.355 1.08 0 1.491-.356.413-.932.413-1.288 0a1.175 1.175 0 0 1 0-1.491zm-9.656 11.188c.356-.411.93-.411 1.287 0 .356.412.356 1.08 0 1.493-.356.411-.931.411-1.287 0a1.177 1.177 0 0 1 0-1.493zm-9.657 11.189c.356-.413.932-.413 1.288 0 .355.412.355 1.079 0 1.491-.356.413-.932.413-1.288 0a1.175 1.175 0 0 1 0-1.491zm-9.656 11.188c.356-.412.931-.412 1.287 0 .356.413.356 1.08 0 1.493-.356.411-.931.411-1.287 0a1.177 1.177 0 0 1 0-1.493zm-9.656 11.19c.355-.413.931-.413 1.287 0 .356.41.356 1.078 0 1.49-.356.413-.932.413-1.287 0a1.175 1.175 0 0 1 0-1.49zm-9.657 11.187c.355-.412.932-.412 1.288 0 .356.413.356 1.08 0 1.492-.356.413-.933.413-1.288 0a1.175 1.175 0 0 1 0-1.492zm-9.657 11.189c.356-.413.931-.413 1.287 0 .356.412.356 1.08 0 1.492-.356.412-.93.412-1.287 0a1.175 1.175 0 0 1 0-1.492zm-9.656 11.188c.356-.411.932-.411 1.287 0 .356.413.356 1.08 0 1.493-.355.411-.931.411-1.287 0a1.177 1.177 0 0 1 0-1.493zm-9.656 11.19c.356-.413.931-.413 1.287 0 .356.41.356 1.078 0 1.49-.356.413-.931.413-1.287 0a1.175 1.175 0 0 1 0-1.49zm-9.657 11.188c.356-.413.932-.413 1.288 0 .356.412.356 1.08 0 1.491-.356.413-.932.413-1.288 0a1.175 1.175 0 0 1 0-1.491zm-9.656 11.188c.356-.411.931-.411 1.287 0 .356.412.356 1.08 0 1.493-.356.411-.931.411-1.287 0a1.177 1.177 0 0 1 0-1.493zm-9.657 11.189c.356-.413.932-.413 1.288 0 .355.412.355 1.08 0 1.492-.356.412-.932.412-1.288 0a1.177 1.177 0 0 1 0-1.492zm-9.656 11.188c.356-.412.932-.412 1.288 0 .356.413.356 1.08 0 1.492-.356.412-.932.412-1.288 0a1.177 1.177 0 0 1 0-1.492zm-9.657 11.189c.356-.412.932-.412 1.288 0s.356 1.08 0 1.492c-.356.412-.932.412-1.288 0a1.177 1.177 0 0 1 0-1.492zm-9.656 11.189c.356-.413.931-.413 1.287 0 .356.411.356 1.079 0 1.491-.356.413-.931.413-1.287 0a1.175 1.175 0 0 1 0-1.491zm-9.656 11.188c.356-.412.931-.412 1.287 0 .356.413.356 1.08 0 1.492-.356.412-.931.412-1.287 0a1.175 1.175 0 0 1 0-1.492zm-9.657 11.188c.356-.411.932-.411 1.288 0 .356.413.356 1.08 0 1.493-.356.411-.932.411-1.288 0a1.177 1.177 0 0 1 0-1.493zm-9.656 11.19c.356-.413.932-.413 1.288 0 .355.412.355 1.078 0 1.49-.356.413-.932.413-1.288 0a1.175 1.175 0 0 1 0-1.49zm-9.657 11.188c.356-.413.932-.413 1.287 0 .356.412.356 1.079 0 1.491-.355.413-.931.413-1.287 0a1.175 1.175 0 0 1 0-1.491zm-9.656 11.188c.356-.412.932-.412 1.287 0 .356.413.356 1.08 0 1.492-.355.412-.931.412-1.287 0a1.175 1.175 0 0 1 0-1.492zM434.806 313.59c.356-.413.932-.413 1.288 0 .356.412.356 1.08 0 1.491-.356.413-.932.413-1.288 0a1.175 1.175 0 0 1 0-1.491zm-9.657 11.188a.827.827 0 0 1 1.288 0c.355.412.355 1.08 0 1.493a.827.827 0 0 1-1.288 0 1.177 1.177 0 0 1 0-1.493zm-9.656 11.189c.356-.413.932-.413 1.288 0 .355.412.355 1.079 0 1.491-.356.413-.932.413-1.288 0a1.175 1.175 0 0 1 0-1.491zm-9.656 11.188c.356-.412.93-.412 1.287 0 .356.413.356 1.08 0 1.493-.356.411-.931.411-1.287 0a1.177 1.177 0 0 1 0-1.493zm-9.657 11.19c.356-.413.932-.413 1.288 0 .355.41.355 1.078 0 1.49-.356.413-.932.413-1.288 0a1.175 1.175 0 0 1 0-1.49zm-9.656 11.187c.356-.412.931-.412 1.287 0 .356.413.356 1.08 0 1.492-.356.413-.931.413-1.287 0a1.175 1.175 0 0 1 0-1.492zm-9.656 11.189c.355-.413.931-.413 1.287 0 .356.412.356 1.08 0 1.492-.356.412-.932.412-1.287 0a1.175 1.175 0 0 1 0-1.492zm-9.657 11.188c.355-.411.932-.411 1.288 0 .356.413.356 1.08 0 1.493-.356.411-.933.411-1.288 0a1.177 1.177 0 0 1 0-1.493zm-9.657 11.19c.356-.413.931-.413 1.287 0 .356.41.356 1.078 0 1.49-.356.413-.93.413-1.287 0a1.175 1.175 0 0 1 0-1.49zm-9.656 11.188c.356-.413.932-.413 1.287 0 .356.412.356 1.08 0 1.491-.355.413-.931.413-1.287 0a1.175 1.175 0 0 1 0-1.491zm-9.656 11.188c.356-.411.931-.411 1.287 0 .356.412.356 1.08 0 1.493-.356.411-.931.411-1.287 0a1.177 1.177 0 0 1 0-1.493zm-9.657 11.189c.356-.413.932-.413 1.288 0 .356.412.356 1.08 0 1.492-.356.412-.932.412-1.288 0a1.175 1.175 0 0 1 0-1.492zm-9.656 11.188c.356-.412.931-.412 1.287 0 .356.413.356 1.08 0 1.492-.356.412-.931.412-1.287 0a1.175 1.175 0 0 1 0-1.492zm-9.657 11.189a.827.827 0 0 1 1.288 0c.355.412.355 1.08 0 1.492a.827.827 0 0 1-1.288 0 1.179 1.179 0 0 1 0-1.492zm-9.656 11.189c.356-.413.932-.413 1.288 0 .356.411.356 1.079 0 1.491-.356.413-.932.413-1.288 0a1.177 1.177 0 0 1 0-1.491zm-9.657 11.188c.356-.412.932-.412 1.288 0 .356.413.356 1.08 0 1.492-.356.412-.932.412-1.288 0a1.175 1.175 0 0 1 0-1.492zm-9.656 11.188c.356-.411.931-.411 1.287 0 .356.413.356 1.08 0 1.493-.356.411-.931.411-1.287 0a1.177 1.177 0 0 1 0-1.493zm-9.656 11.19c.356-.413.931-.413 1.287 0 .356.412.356 1.078 0 1.49-.356.413-.931.413-1.287 0a1.175 1.175 0 0 1 0-1.49zm-9.657 11.188c.356-.413.932-.413 1.288 0 .356.412.356 1.079 0 1.491-.356.413-.932.413-1.288 0a1.175 1.175 0 0 1 0-1.491zm-9.656 11.188c.356-.412.932-.412 1.288 0 .355.413.355 1.08 0 1.492-.356.412-.932.412-1.288 0a1.175 1.175 0 0 1 0-1.492zm-9.657 11.189c.356-.413.932-.413 1.287 0 .356.412.356 1.08 0 1.491-.355.413-.931.413-1.287 0a1.175 1.175 0 0 1 0-1.491zm193.13-201.394c.355-.413.93-.413 1.287 0 .356.412.356 1.079 0 1.491-.356.413-.932.413-1.288 0a1.175 1.175 0 0 1 0-1.491zm-9.658 11.188c.356-.412.932-.412 1.288 0 .355.413.355 1.08 0 1.493a.827.827 0 0 1-1.288 0 1.177 1.177 0 0 1 0-1.493zm-9.656 11.19c.356-.413.932-.413 1.288 0 .355.41.355 1.078 0 1.49-.356.413-.932.413-1.288 0a1.175 1.175 0 0 1 0-1.49zm-9.656 11.187c.356-.412.93-.412 1.287 0 .356.413.356 1.08 0 1.492-.356.413-.931.413-1.287 0a1.175 1.175 0 0 1 0-1.492zm-9.657 11.189c.356-.413.932-.413 1.288 0 .355.412.355 1.08 0 1.492-.356.412-.932.412-1.288 0a1.175 1.175 0 0 1 0-1.492zm-9.656 11.188c.356-.411.931-.411 1.287 0 .356.413.356 1.08 0 1.493-.356.411-.931.411-1.287 0a1.177 1.177 0 0 1 0-1.493zm-9.656 11.19c.355-.413.931-.413 1.287 0 .356.41.356 1.078 0 1.49-.356.413-.932.413-1.287 0a1.175 1.175 0 0 1 0-1.49zm-9.657 11.188c.355-.413.932-.413 1.288 0 .356.412.356 1.08 0 1.491-.356.413-.933.413-1.288 0a1.175 1.175 0 0 1 0-1.491zm-9.657 11.188c.356-.411.931-.411 1.287 0 .356.412.356 1.08 0 1.493-.356.411-.93.411-1.287 0a1.177 1.177 0 0 1 0-1.493zm-9.656 11.189c.356-.413.932-.413 1.287 0 .356.412.356 1.08 0 1.492-.355.412-.931.412-1.287 0a1.175 1.175 0 0 1 0-1.492zm-9.656 11.188c.356-.412.931-.412 1.287 0 .356.413.356 1.08 0 1.492-.356.412-.931.412-1.287 0a1.175 1.175 0 0 1 0-1.492zm-9.657 11.189c.356-.412.932-.412 1.288 0s.356 1.08 0 1.492c-.356.412-.932.412-1.288 0a1.177 1.177 0 0 1 0-1.492zm-9.656 11.189c.356-.413.931-.413 1.287 0 .356.411.356 1.079 0 1.491-.356.413-.931.413-1.287 0a1.175 1.175 0 0 1 0-1.491zm-9.657 11.188c.356-.412.932-.412 1.288 0 .355.413.355 1.08 0 1.492-.356.412-.932.412-1.288 0a1.177 1.177 0 0 1 0-1.492zm-9.656 11.188a.827.827 0 0 1 1.288 0c.356.413.356 1.08 0 1.493a.827.827 0 0 1-1.288 0 1.179 1.179 0 0 1 0-1.493zm-9.657 11.19c.356-.413.932-.413 1.288 0 .356.412.356 1.078 0 1.49-.356.413-.932.413-1.288 0a1.175 1.175 0 0 1 0-1.49zm-9.656 11.188c.356-.413.931-.413 1.287 0 .356.412.356 1.079 0 1.491-.356.413-.931.413-1.287 0a1.175 1.175 0 0 1 0-1.491zm-9.656 11.188c.356-.412.931-.412 1.287 0 .356.413.356 1.08 0 1.492-.356.412-.931.412-1.287 0a1.175 1.175 0 0 1 0-1.492zm-9.657 11.189c.356-.413.932-.413 1.288 0 .356.412.356 1.08 0 1.491-.356.413-.932.413-1.288 0a1.175 1.175 0 0 1 0-1.491zm-9.656 11.188c.356-.412.932-.412 1.288 0 .355.412.355 1.08 0 1.492-.356.413-.932.413-1.288 0a1.177 1.177 0 0 1 0-1.492zm183.472-190.205c.356-.412.932-.412 1.288 0s.356 1.08 0 1.492c-.356.412-.932.412-1.288 0a1.175 1.175 0 0 1 0-1.492zm-9.657 11.188c.356-.412.932-.412 1.288 0 .355.413.355 1.08 0 1.492-.356.413-.932.413-1.288 0a1.175 1.175 0 0 1 0-1.492zm-9.656 11.189c.356-.413.932-.413 1.288 0 .355.412.355 1.08 0 1.492-.356.412-.932.412-1.288 0a1.175 1.175 0 0 1 0-1.492zm-9.656 11.188c.356-.411.93-.411 1.287 0 .356.413.356 1.08 0 1.493-.356.411-.931.411-1.287 0a1.177 1.177 0 0 1 0-1.493zm-9.657 11.19c.356-.413.932-.413 1.288 0 .355.41.355 1.078 0 1.49-.356.413-.932.413-1.288 0a1.175 1.175 0 0 1 0-1.49zm-9.656 11.188c.356-.413.931-.413 1.287 0 .356.412.356 1.08 0 1.491-.356.413-.931.413-1.287 0a1.175 1.175 0 0 1 0-1.491zm-9.656 11.188c.355-.411.931-.411 1.287 0 .356.412.356 1.08 0 1.493-.356.411-.932.411-1.287 0a1.177 1.177 0 0 1 0-1.493zm-9.657 11.189c.355-.413.932-.413 1.288 0 .356.412.356 1.08 0 1.492-.356.412-.933.412-1.288 0a1.175 1.175 0 0 1 0-1.492zm-9.657 11.188c.356-.412.931-.412 1.287 0 .356.413.356 1.08 0 1.492-.356.412-.93.412-1.287 0a1.175 1.175 0 0 1 0-1.492zm-9.656 11.189c.356-.412.932-.412 1.287 0 .356.412.356 1.08 0 1.492-.355.412-.931.412-1.287 0a1.177 1.177 0 0 1 0-1.492zm-9.656 11.189c.356-.413.931-.413 1.287 0 .356.411.356 1.079 0 1.491-.356.413-.931.413-1.287 0a1.175 1.175 0 0 1 0-1.491zm-9.657 11.188c.356-.412.932-.412 1.288 0 .356.413.356 1.08 0 1.492-.356.412-.932.412-1.288 0a1.175 1.175 0 0 1 0-1.492zm-9.656 11.188c.356-.411.931-.411 1.287 0 .356.413.356 1.08 0 1.493-.356.411-.931.411-1.287 0a1.177 1.177 0 0 1 0-1.493zm-9.657 11.19c.356-.413.932-.413 1.288 0 .355.412.355 1.078 0 1.49-.356.413-.932.413-1.288 0a1.177 1.177 0 0 1 0-1.49zm-9.656 11.188c.356-.413.932-.413 1.288 0 .356.412.356 1.079 0 1.491-.356.413-.932.413-1.288 0a1.177 1.177 0 0 1 0-1.491zm-9.657 11.188c.356-.412.932-.412 1.288 0 .356.413.356 1.08 0 1.492-.356.412-.932.412-1.288 0a1.175 1.175 0 0 1 0-1.492zm-9.656 11.189c.356-.413.931-.413 1.287 0 .356.412.356 1.08 0 1.491-.356.413-.931.413-1.287 0a1.175 1.175 0 0 1 0-1.491zm-9.656 11.188c.356-.412.931-.412 1.287 0 .356.412.356 1.08 0 1.492-.356.413-.931.413-1.287 0a1.177 1.177 0 0 1 0-1.492zm-9.657 11.19c.356-.413.932-.413 1.288 0 .356.41.356 1.078 0 1.49-.356.413-.932.413-1.288 0a1.175 1.175 0 0 1 0-1.49zM434.806 380.72c.356-.413.932-.413 1.288 0 .356.412.356 1.08 0 1.492-.356.412-.932.412-1.288 0a1.175 1.175 0 0 1 0-1.492zm-9.657 11.188a.827.827 0 0 1 1.288 0c.355.413.355 1.08 0 1.493a.827.827 0 0 1-1.288 0 1.177 1.177 0 0 1 0-1.493zm-9.656 11.19c.356-.413.932-.413 1.288 0 .355.41.355 1.078 0 1.49-.356.413-.932.413-1.288 0a1.175 1.175 0 0 1 0-1.49zm-9.656 11.188c.356-.413.93-.413 1.287 0 .356.412.356 1.08 0 1.491-.356.413-.931.413-1.287 0a1.175 1.175 0 0 1 0-1.491zm-9.657 11.188c.356-.411.932-.411 1.288 0 .355.412.355 1.08 0 1.493-.356.411-.932.411-1.288 0a1.177 1.177 0 0 1 0-1.493zm-9.656 11.189c.356-.413.931-.413 1.287 0 .356.412.356 1.08 0 1.492-.356.412-.931.412-1.287 0a1.175 1.175 0 0 1 0-1.492zm-9.656 11.188c.355-.412.931-.412 1.287 0 .356.413.356 1.08 0 1.492-.356.412-.932.412-1.287 0a1.175 1.175 0 0 1 0-1.492zm-9.657 11.189c.355-.412.932-.412 1.288 0s.356 1.08 0 1.492c-.356.412-.933.412-1.288 0a1.177 1.177 0 0 1 0-1.492zm-9.657 11.189c.356-.413.931-.413 1.287 0 .356.411.356 1.079 0 1.491-.356.413-.93.413-1.287 0a1.175 1.175 0 0 1 0-1.491zm-9.656 11.188c.356-.412.932-.412 1.287 0 .356.413.356 1.08 0 1.492-.355.412-.931.412-1.287 0a1.175 1.175 0 0 1 0-1.492zm-9.656 11.188c.356-.411.931-.411 1.287 0 .356.413.356 1.08 0 1.493-.356.411-.931.411-1.287 0a1.177 1.177 0 0 1 0-1.493zm-9.657 11.19c.356-.413.932-.413 1.288 0 .356.412.356 1.078 0 1.49-.356.413-.932.413-1.288 0a1.175 1.175 0 0 1 0-1.49zm-9.656 11.188c.356-.413.931-.413 1.287 0 .356.412.356 1.079 0 1.491-.356.413-.931.413-1.287 0a1.175 1.175 0 0 1 0-1.491zm-9.657 11.188c.356-.412.932-.412 1.288 0 .355.413.355 1.08 0 1.492-.356.412-.932.412-1.288 0a1.177 1.177 0 0 1 0-1.492zm-9.656 11.189c.356-.413.932-.413 1.288 0 .356.412.356 1.08 0 1.491-.356.413-.932.413-1.288 0a1.177 1.177 0 0 1 0-1.491zm-9.657 11.188c.356-.412.932-.412 1.288 0s.356 1.08 0 1.492c-.356.413-.932.413-1.288 0a1.177 1.177 0 0 1 0-1.492zm-9.656 11.19c.356-.413.931-.413 1.287 0 .356.41.356 1.078 0 1.49-.356.413-.931.413-1.287 0a1.175 1.175 0 0 1 0-1.49zm-9.656 11.188c.356-.413.931-.413 1.287 0 .356.412.356 1.079 0 1.491-.356.413-.931.413-1.287 0a1.175 1.175 0 0 1 0-1.491zm154.502-156.64c.356-.413.932-.413 1.288 0 .355.412.355 1.08 0 1.491-.356.413-.932.413-1.288 0a1.175 1.175 0 0 1 0-1.491zm-9.656 11.188a.827.827 0 0 1 1.288 0c.355.412.355 1.08 0 1.493a.827.827 0 0 1-1.288 0 1.177 1.177 0 0 1 0-1.493zm-9.656 11.189c.356-.413.93-.413 1.287 0 .356.412.356 1.08 0 1.492-.356.412-.931.412-1.287 0a1.175 1.175 0 0 1 0-1.492zm-9.657 11.188c.356-.412.932-.412 1.288 0 .355.413.355 1.08 0 1.492-.356.412-.932.412-1.288 0a1.175 1.175 0 0 1 0-1.492zm-9.656 11.189c.356-.412.931-.412 1.287 0 .356.412.356 1.08 0 1.492-.356.412-.931.412-1.287 0a1.177 1.177 0 0 1 0-1.492zm-9.656 11.189c.355-.413.931-.413 1.287 0 .356.411.356 1.079 0 1.491-.356.413-.932.413-1.287 0a1.175 1.175 0 0 1 0-1.491zm-9.657 11.188c.355-.412.932-.412 1.288 0 .356.413.356 1.08 0 1.492-.356.412-.933.412-1.288 0a1.175 1.175 0 0 1 0-1.492zm-9.657 11.188c.356-.411.931-.411 1.287 0 .356.413.356 1.08 0 1.493-.356.411-.93.411-1.287 0a1.177 1.177 0 0 1 0-1.493zm-9.656 11.19c.356-.413.932-.413 1.287 0 .356.412.356 1.078 0 1.49-.355.413-.931.413-1.287 0a1.175 1.175 0 0 1 0-1.49zm-9.656 11.188c.356-.413.931-.413 1.287 0 .356.412.356 1.079 0 1.491-.356.413-.931.413-1.287 0a1.175 1.175 0 0 1 0-1.491zm-9.657 11.188c.356-.412.932-.412 1.288 0 .356.413.356 1.08 0 1.492-.356.412-.932.412-1.288 0a1.175 1.175 0 0 1 0-1.492zm-9.656 11.189c.356-.413.931-.413 1.287 0 .356.412.356 1.08 0 1.491-.356.413-.931.413-1.287 0a1.175 1.175 0 0 1 0-1.491zm-9.657 11.188a.827.827 0 0 1 1.288 0c.355.412.355 1.08 0 1.492-.356.413-.932.413-1.288 0a1.179 1.179 0 0 1 0-1.492zm-9.656 11.19c.356-.413.932-.413 1.288 0 .356.41.356 1.078 0 1.49-.356.413-.932.413-1.288 0a1.177 1.177 0 0 1 0-1.49zm-9.657 11.188c.356-.413.932-.413 1.288 0 .356.412.356 1.079 0 1.491-.356.413-.932.413-1.288 0a1.175 1.175 0 0 1 0-1.491zm-9.656 11.188c.356-.412.931-.412 1.287 0 .356.412.356 1.08 0 1.492-.356.412-.931.412-1.287 0a1.175 1.175 0 0 1 0-1.492zm154.503-156.64c.356-.411.932-.411 1.288 0 .356.412.356 1.08 0 1.493-.356.411-.932.411-1.288 0a1.177 1.177 0 0 1 0-1.493zm-9.657 11.189c.356-.413.932-.413 1.288 0 .355.412.355 1.08 0 1.492-.356.412-.932.412-1.288 0a1.175 1.175 0 0 1 0-1.492zm-9.656 11.188c.356-.412.932-.412 1.288 0 .355.413.355 1.08 0 1.492-.356.412-.932.412-1.288 0a1.175 1.175 0 0 1 0-1.492zm-9.656 11.189c.356-.412.93-.412 1.287 0 .356.412.356 1.08 0 1.492-.356.412-.931.412-1.287 0a1.177 1.177 0 0 1 0-1.492zm-9.657 11.189c.356-.413.932-.413 1.288 0 .355.411.355 1.079 0 1.491-.356.413-.932.413-1.288 0a1.175 1.175 0 0 1 0-1.491zm-9.656 11.188c.356-.412.931-.412 1.287 0 .356.413.356 1.08 0 1.492-.356.412-.931.412-1.287 0a1.175 1.175 0 0 1 0-1.492zm-9.656 11.188c.355-.411.931-.411 1.287 0 .356.413.356 1.08 0 1.493-.356.411-.932.411-1.287 0a1.177 1.177 0 0 1 0-1.493zm-9.657 11.19c.355-.413.932-.413 1.288 0 .356.412.356 1.078 0 1.49-.356.413-.933.413-1.288 0a1.175 1.175 0 0 1 0-1.49zm-9.657 11.188c.356-.413.931-.413 1.287 0 .356.412.356 1.079 0 1.491-.356.413-.93.413-1.287 0a1.175 1.175 0 0 1 0-1.491zm-9.656 11.188c.356-.412.932-.412 1.287 0 .356.413.356 1.08 0 1.492-.355.412-.931.412-1.287 0a1.175 1.175 0 0 1 0-1.492zm-9.656 11.189c.356-.413.931-.413 1.287 0 .356.412.356 1.08 0 1.491-.356.413-.931.413-1.287 0a1.175 1.175 0 0 1 0-1.491zm-9.657 11.188c.356-.412.932-.412 1.288 0s.356 1.08 0 1.492c-.356.413-.932.413-1.288 0a1.177 1.177 0 0 1 0-1.492zm-9.656 11.19c.356-.413.931-.413 1.287 0 .356.41.356 1.078 0 1.49-.356.413-.931.413-1.287 0a1.175 1.175 0 0 1 0-1.49zm-9.657 11.188c.356-.413.932-.413 1.288 0 .355.412.355 1.079 0 1.491-.356.413-.932.413-1.288 0a1.177 1.177 0 0 1 0-1.491zm-9.656 11.188c.356-.412.932-.412 1.288 0s.356 1.08 0 1.492c-.356.412-.932.412-1.288 0a1.177 1.177 0 0 1 0-1.492zm-9.657 11.188c.356-.412.932-.412 1.288 0 .356.413.356 1.08 0 1.492-.356.413-.932.413-1.288 0a1.175 1.175 0 0 1 0-1.492z"/>
        <filter id="d" width="111.9%" height="108.7%" x="-6%" y="-3.7%" filterUnits="objectBoundingBox">
            <feOffset dy="4" in="SourceAlpha" result="shadowOffsetOuter1"/>
            <feGaussianBlur in="shadowOffsetOuter1" result="shadowBlurOuter1" stdDeviation="8"/>
            <feColorMatrix in="shadowBlurOuter1" values="0 0 0 0 0 0 0 0 0 0 0 0 0 0 0 0 0 0 0.02 0"/>
        </filter>
    </defs>
    <g fill="none" fill-rule="evenodd">
        <g transform="translate(6 -250)">
            <mask id="c" fill="#fff">
                <use xlink:href="#a"/>
            </mask>
            <g transform="rotate(-16 467 418)">
                <use fill="#000" filter="url(#b)" xlink:href="#a"/>
                <use fill="#4089BA" xlink:href="#a"/>
            </g>
            <g mask="url(#c)">
                <g transform="rotate(90 312.25 664.25)">
                    <use fill="#000" filter="url(#d)" xlink:href="#e"/>
                    <use fill="#20D5A4" xlink:href="#e"/>
                </g>
            </g>
        </g>
        <path stroke="#FFF" stroke-width="22" d="M558 352.5c-21.547 22.207-51.668 36-85 36s-63.453-13.793-85-36" opacity=".9"/>
    </g>
</svg>
